<?xml version="1.0" encoding="UTF-8" standalone="no"?><svg xmlns="http://www.w3.org/2000/svg" xmlns:xlink="http://www.w3.org/1999/xlink" contentStyleType="text/css" height="737px" preserveAspectRatio="none" style="width:976px;height:737px;background:#FFFFFF;" version="1.1" viewBox="0 0 976 737" width="976px" zoomAndPan="magnify"><defs/><g><ellipse cx="488" cy="20" fill="#222222" rx="10" ry="10" style="stroke:#222222;stroke-width:1.0;"/><rect fill="#F1F1F1" height="64.2344" rx="12.5" ry="12.5" style="stroke:#181818;stroke-width:0.5;" width="238" x="369" y="50"/><text fill="#000000" font-family="sans-serif" font-size="14" font-weight="bold" lengthAdjust="spacing" textLength="40" x="379" y="72.9951">Input</text><text fill="#000000" font-family="sans-serif" font-size="12" lengthAdjust="spacing" textLength="12" x="379" y="87.4355">---</text><text fill="#000000" font-family="sans-serif" font-size="12" lengthAdjust="spacing" textLength="218" x="379" y="101.4043">Input Matched Tumor/Normal BAMs</text><rect fill="#F1F1F1" height="64.2344" rx="12.5" ry="12.5" style="stroke:#181818;stroke-width:0.5;" width="358" x="309" y="134.2344"/><text fill="#000000" font-family="sans-serif" font-size="14" font-weight="bold" lengthAdjust="spacing" textLength="122" x="319" y="157.2295">Input Validation</text><text fill="#000000" font-family="sans-serif" font-size="12" lengthAdjust="spacing" textLength="12" x="319" y="171.6699">---</text><text fill="#000000" font-family="sans-serif" font-size="12" lengthAdjust="spacing" textLength="338" x="319" y="185.6387">Validate the input BAMs and corresponding index files</text><line style="stroke:#181818;stroke-width:1.5;" x1="142" x2="877" y1="218.4688" y2="218.4688"/><rect fill="none" height="436.2031" style="stroke:#000000;stroke-width:1.5;" width="262" x="11" y="228.4688"/><path d="M64,228.4688 L64,237.7656 L54,247.7656 L11,247.7656 " fill="none" style="stroke:#000000;stroke-width:1.5;"/><text fill="#000000" font-family="sans-serif" font-size="14" lengthAdjust="spacing" textLength="43" x="14" y="242.4639">DELLY</text><rect fill="#F1F1F1" height="64.2344" rx="12.5" ry="12.5" style="stroke:#181818;stroke-width:0.5;" width="154" x="65" y="264.7656"/><text fill="#000000" font-family="sans-serif" font-size="14" font-weight="bold" lengthAdjust="spacing" textLength="83" x="75" y="287.7607">DELLY sSV</text><text fill="#000000" font-family="sans-serif" font-size="12" lengthAdjust="spacing" textLength="12" x="75" y="302.2012">---</text><text fill="#000000" font-family="sans-serif" font-size="12" lengthAdjust="spacing" textLength="134" x="75" y="316.1699">Call sSVs using DELLY</text><rect fill="#F1F1F1" height="78.2031" rx="12.5" ry="12.5" style="stroke:#181818;stroke-width:0.5;" width="242" x="21" y="364"/><text fill="#000000" font-family="sans-serif" font-size="14" font-weight="bold" lengthAdjust="spacing" textLength="159" x="31" y="386.9951">Query Sample Name</text><text fill="#000000" font-family="sans-serif" font-size="12" lengthAdjust="spacing" textLength="12" x="31" y="401.4355">---</text><text fill="#000000" font-family="sans-serif" font-size="12" lengthAdjust="spacing" textLength="222" x="31" y="415.4043">Query Tumor/Normal sample names</text><text fill="#000000" font-family="sans-serif" font-size="12" lengthAdjust="spacing" textLength="92" x="31" y="429.373">using BCFtools</text><rect fill="#F1F1F1" height="64.2344" rx="12.5" ry="12.5" style="stroke:#181818;stroke-width:0.5;" width="239" x="22.5" y="477.2031"/><text fill="#000000" font-family="sans-serif" font-size="14" font-weight="bold" lengthAdjust="spacing" textLength="75" x="32.5" y="500.1982">Filter sSV</text><text fill="#000000" font-family="sans-serif" font-size="12" lengthAdjust="spacing" textLength="12" x="32.5" y="514.6387">---</text><text fill="#000000" font-family="sans-serif" font-size="12" lengthAdjust="spacing" textLength="219" x="32.5" y="528.6074">Filter out germline SVs using DELLY</text><rect fill="#F1F1F1" height="78.2031" rx="12.5" ry="12.5" style="stroke:#181818;stroke-width:0.5;" width="181" x="51.5" y="568.4375"/><text fill="#000000" font-family="sans-serif" font-size="14" font-weight="bold" lengthAdjust="spacing" textLength="93" x="61.5" y="591.4326">CIRCOS plot</text><text fill="#000000" font-family="sans-serif" font-size="12" lengthAdjust="spacing" textLength="12" x="61.5" y="605.873">---</text><text fill="#000000" font-family="sans-serif" font-size="12" lengthAdjust="spacing" textLength="161" x="61.5" y="619.8418">Plot CIRCOS for DELLY gSV</text><text fill="#000000" font-family="sans-serif" font-size="12" lengthAdjust="spacing" textLength="36" x="61.5" y="633.8105">(PNG)</text><rect fill="none" height="410.2344" style="stroke:#000000;stroke-width:1.5;" width="264" x="283" y="242.4375"/><path d="M355,242.4375 L355,251.7344 L345,261.7344 L283,261.7344 " fill="none" style="stroke:#000000;stroke-width:1.5;"/><text fill="#000000" font-family="sans-serif" font-size="14" lengthAdjust="spacing" textLength="62" x="286" y="256.4326">GRIDSS2</text><rect fill="#F1F1F1" height="64.2344" rx="12.5" ry="12.5" style="stroke:#181818;stroke-width:0.5;" width="219" x="305.5" y="278.7344"/><text fill="#000000" font-family="sans-serif" font-size="14" font-weight="bold" lengthAdjust="spacing" textLength="130" x="315.5" y="301.7295">Preprocess BAM</text><text fill="#000000" font-family="sans-serif" font-size="12" lengthAdjust="spacing" textLength="12" x="315.5" y="316.1699">---</text><text fill="#000000" font-family="sans-serif" font-size="12" lengthAdjust="spacing" textLength="199" x="315.5" y="330.1387">Preprocess Tumor/Normal BAMs</text><rect fill="#F1F1F1" height="64.2344" rx="12.5" ry="12.5" style="stroke:#181818;stroke-width:0.5;" width="244" x="293" y="377.9688"/><text fill="#000000" font-family="sans-serif" font-size="14" font-weight="bold" lengthAdjust="spacing" textLength="156" x="303" y="400.9639">Breakend Assembly</text><text fill="#000000" font-family="sans-serif" font-size="12" lengthAdjust="spacing" textLength="12" x="303" y="415.4043">---</text><text fill="#000000" font-family="sans-serif" font-size="12" lengthAdjust="spacing" textLength="224" x="303" y="429.373">Perform GRIDSS breakend assembly</text><rect fill="#F1F1F1" height="64.2344" rx="12.5" ry="12.5" style="stroke:#181818;stroke-width:0.5;" width="164" x="333" y="477.2031"/><text fill="#000000" font-family="sans-serif" font-size="14" font-weight="bold" lengthAdjust="spacing" textLength="102" x="343" y="500.1982">GRIDSS2 sSV</text><text fill="#000000" font-family="sans-serif" font-size="12" lengthAdjust="spacing" textLength="12" x="343" y="514.6387">---</text><text fill="#000000" font-family="sans-serif" font-size="12" lengthAdjust="spacing" textLength="144" x="343" y="528.6074">Call SVs using GRIDSS2</text><rect fill="#F1F1F1" height="64.2344" rx="12.5" ry="12.5" style="stroke:#181818;stroke-width:0.5;" width="156" x="337" y="568.4375"/><text fill="#000000" font-family="sans-serif" font-size="14" font-weight="bold" lengthAdjust="spacing" textLength="75" x="347" y="591.4326">Filter sSV</text><text fill="#000000" font-family="sans-serif" font-size="12" lengthAdjust="spacing" textLength="12" x="347" y="605.873">---</text><text fill="#000000" font-family="sans-serif" font-size="12" lengthAdjust="spacing" textLength="136" x="347" y="619.8418">Filter somatic SV calls</text><rect fill="none" height="225.7344" style="stroke:#000000;stroke-width:1.5;" width="204" x="575" y="334.6875"/><path d="M627,334.6875 L627,343.9844 L617,353.9844 L575,353.9844 " fill="none" style="stroke:#000000;stroke-width:1.5;"/><text fill="#000000" font-family="sans-serif" font-size="14" lengthAdjust="spacing" textLength="42" x="578" y="348.6826">Manta</text><rect fill="#F1F1F1" height="64.2344" rx="12.5" ry="12.5" style="stroke:#181818;stroke-width:0.5;" width="150" x="602" y="370.9844"/><text fill="#000000" font-family="sans-serif" font-size="14" font-weight="bold" lengthAdjust="spacing" textLength="82" x="612" y="393.9795">Manta sSV</text><text fill="#000000" font-family="sans-serif" font-size="12" lengthAdjust="spacing" textLength="12" x="612" y="408.4199">---</text><text fill="#000000" font-family="sans-serif" font-size="12" lengthAdjust="spacing" textLength="130" x="612" y="422.3887">Call SVs using Manta</text><rect fill="#F1F1F1" height="78.2031" rx="12.5" ry="12.5" style="stroke:#181818;stroke-width:0.5;" width="184" x="585" y="470.2188"/><text fill="#000000" font-family="sans-serif" font-size="14" font-weight="bold" lengthAdjust="spacing" textLength="93" x="595" y="493.2139">CIRCOS plot</text><text fill="#000000" font-family="sans-serif" font-size="12" lengthAdjust="spacing" textLength="12" x="595" y="507.6543">---</text><text fill="#000000" font-family="sans-serif" font-size="12" lengthAdjust="spacing" textLength="164" x="595" y="521.623">Plot CIRCOS for Manta gSV</text><text fill="#000000" font-family="sans-serif" font-size="12" lengthAdjust="spacing" textLength="36" x="595" y="535.5918">(PNG)</text><rect fill="none" height="120.5313" style="stroke:#000000;stroke-width:1.5;" width="176" x="789" y="391.2891"/><path d="M849,391.2891 L849,400.5859 L839,410.5859 L789,410.5859 " fill="none" style="stroke:#000000;stroke-width:1.5;"/><text fill="#000000" font-family="sans-serif" font-size="14" lengthAdjust="spacing" textLength="50" x="792" y="405.2842">SVision</text><rect fill="#F1F1F1" height="64.2344" rx="12.5" ry="12.5" style="stroke:#181818;stroke-width:0.5;" width="156" x="799" y="427.5859"/><text fill="#000000" font-family="sans-serif" font-size="14" font-weight="bold" lengthAdjust="spacing" textLength="84" x="809" y="450.5811">SVision SV</text><text fill="#000000" font-family="sans-serif" font-size="12" lengthAdjust="spacing" textLength="12" x="809" y="465.0215">---</text><text fill="#000000" font-family="sans-serif" font-size="12" lengthAdjust="spacing" textLength="136" x="809" y="478.9902">Call SVs using SVision</text><line style="stroke:#181818;stroke-width:1.5;" x1="142" x2="877" y1="684.6719" y2="684.6719"/><ellipse cx="488" cy="715.6719" rx="11" ry="11" style="stroke:#222222;stroke-width:1.0;fill:none;"/><ellipse cx="488" cy="715.6719" fill="#222222" rx="6" ry="6" style="stroke:#111111;stroke-width:1.0;"/><line style="stroke:#181818;stroke-width:1.0;" x1="488" x2="488" y1="30" y2="50"/><polygon fill="#181818" points="484,40,488,50,492,40,488,44" style="stroke:#181818;stroke-width:1.0;"/><line style="stroke:#181818;stroke-width:1.0;" x1="488" x2="488" y1="114.2344" y2="134.2344"/><polygon fill="#181818" points="484,124.2344,488,134.2344,492,124.2344,488,128.2344" style="stroke:#181818;stroke-width:1.0;"/><line style="stroke:#181818;stroke-width:1.0;" x1="142" x2="142" y1="329" y2="364"/><polygon fill="#181818" points="138,354,142,364,146,354,142,358" style="stroke:#181818;stroke-width:1.0;"/><line style="stroke:#181818;stroke-width:1.0;" x1="142" x2="142" y1="442.2031" y2="477.2031"/><polygon fill="#181818" points="138,467.2031,142,477.2031,146,467.2031,142,471.2031" style="stroke:#181818;stroke-width:1.0;"/><line style="stroke:#181818;stroke-width:1.0;" x1="142" x2="142" y1="541.4375" y2="568.4375"/><polygon fill="#181818" points="138,558.4375,142,568.4375,146,558.4375,142,562.4375" style="stroke:#181818;stroke-width:1.0;"/><line style="stroke:#181818;stroke-width:1.0;" x1="415" x2="415" y1="342.9688" y2="377.9688"/><polygon fill="#181818" points="411,367.9688,415,377.9688,419,367.9688,415,371.9688" style="stroke:#181818;stroke-width:1.0;"/><line style="stroke:#181818;stroke-width:1.0;" x1="415" x2="415" y1="442.2031" y2="477.2031"/><polygon fill="#181818" points="411,467.2031,415,477.2031,419,467.2031,415,471.2031" style="stroke:#181818;stroke-width:1.0;"/><line style="stroke:#181818;stroke-width:1.0;" x1="415" x2="415" y1="541.4375" y2="568.4375"/><polygon fill="#181818" points="411,558.4375,415,568.4375,419,558.4375,415,562.4375" style="stroke:#181818;stroke-width:1.0;"/><line style="stroke:#181818;stroke-width:1.0;" x1="677" x2="677" y1="435.2188" y2="470.2188"/><polygon fill="#181818" points="673,460.2188,677,470.2188,681,460.2188,677,464.2188" style="stroke:#181818;stroke-width:1.0;"/><line style="stroke:#181818;stroke-width:1.0;" x1="142" x2="142" y1="219.9688" y2="264.7656"/><polygon fill="#181818" points="138,254.7656,142,264.7656,146,254.7656,142,258.7656" style="stroke:#181818;stroke-width:1.0;"/><line style="stroke:#181818;stroke-width:1.0;" x1="415" x2="415" y1="219.9688" y2="278.7344"/><polygon fill="#181818" points="411,268.7344,415,278.7344,419,268.7344,415,272.7344" style="stroke:#181818;stroke-width:1.0;"/><line style="stroke:#181818;stroke-width:1.0;" x1="677" x2="677" y1="219.9688" y2="370.9844"/><polygon fill="#181818" points="673,360.9844,677,370.9844,681,360.9844,677,364.9844" style="stroke:#181818;stroke-width:1.0;"/><line style="stroke:#181818;stroke-width:1.0;" x1="877" x2="877" y1="219.9688" y2="427.5859"/><polygon fill="#181818" points="873,417.5859,877,427.5859,881,417.5859,877,421.5859" style="stroke:#181818;stroke-width:1.0;"/><line style="stroke:#181818;stroke-width:1.0;" x1="142" x2="142" y1="646.6406" y2="684.6719"/><polygon fill="#181818" points="138,674.6719,142,684.6719,146,674.6719,142,678.6719" style="stroke:#181818;stroke-width:1.0;"/><line style="stroke:#181818;stroke-width:1.0;" x1="415" x2="415" y1="632.6719" y2="684.6719"/><polygon fill="#181818" points="411,674.6719,415,684.6719,419,674.6719,415,678.6719" style="stroke:#181818;stroke-width:1.0;"/><line style="stroke:#181818;stroke-width:1.0;" x1="677" x2="677" y1="548.4219" y2="684.6719"/><polygon fill="#181818" points="673,674.6719,677,684.6719,681,674.6719,677,678.6719" style="stroke:#181818;stroke-width:1.0;"/><line style="stroke:#181818;stroke-width:1.0;" x1="877" x2="877" y1="491.8203" y2="684.6719"/><polygon fill="#181818" points="873,674.6719,877,684.6719,881,674.6719,877,678.6719" style="stroke:#181818;stroke-width:1.0;"/><line style="stroke:#181818;stroke-width:1.0;" x1="488" x2="488" y1="198.4688" y2="218.4688"/><polygon fill="#181818" points="484,208.4688,488,218.4688,492,208.4688,488,212.4688" style="stroke:#181818;stroke-width:1.0;"/><line style="stroke:#181818;stroke-width:1.0;" x1="488" x2="488" y1="686.1719" y2="704.6719"/><polygon fill="#181818" points="484,694.6719,488,704.6719,492,694.6719,488,698.6719" style="stroke:#181818;stroke-width:1.0;"/><!--MD5=[0f21941be5aefee27f626cc41f0f1961]
@startuml
skinparam SwimlaneTitleFontStyle bold

start

:==Input
- - -
Input Matched Tumor/Normal BAMs;
:==Input Validation
- - -
Validate the input BAMs and corresponding index files;

split
partition "DELLY" {
    :==DELLY sSV
    - - -
    Call sSVs using DELLY;
    :==Query Sample Name
    - - -
    Query Tumor/Normal sample names
    using BCFtools;
    :==Filter sSV
    - - -
    Filter out germline SVs using DELLY;
    :==CIRCOS plot
    - - -
    Plot CIRCOS for DELLY gSV
    (PNG);
    }

split again
partition "GRIDSS2" {
    :==Preprocess BAM
    - - -
    Preprocess Tumor/Normal BAMs;
    :==Breakend Assembly
    - - -
    Perform GRIDSS breakend assembly;
    :==GRIDSS2 sSV
    - - -
    Call SVs using GRIDSS2;
    :==Filter sSV
    - - -
    Filter somatic SV calls;
    }

split again
partition "Manta" {
    :==Manta sSV
    - - -
    Call SVs using Manta;
    :==CIRCOS plot
    - - -
    Plot CIRCOS for Manta gSV
    (PNG);
    }

split again
partition "SVision" {
    :==SVision SV
    - - -
    Call SVs using SVision;
    }
end split
stop
@enduml

PlantUML version 1.2022.6(Tue Jun 21 17:34:49 GMT 2022)
(GPL source distribution)
Java Runtime: OpenJDK Runtime Environment
JVM: OpenJDK 64-Bit Server VM
Default Encoding: UTF-8
Language: en
Country: US
--></g></svg>