<?xml version="1.0" encoding="UTF-8" standalone="no"?><svg xmlns="http://www.w3.org/2000/svg" xmlns:xlink="http://www.w3.org/1999/xlink" contentStyleType="text/css" height="723px" preserveAspectRatio="none" style="width:516px;height:723px;background:#FFFFFF;" version="1.1" viewBox="0 0 516 723" width="516px" zoomAndPan="magnify"><defs/><g><ellipse cx="258" cy="20" fill="#222222" rx="10" ry="10" style="stroke:#222222;stroke-width:1.0;"/><rect fill="#F1F1F1" height="64.2344" rx="12.5" ry="12.5" style="stroke:#181818;stroke-width:0.5;" width="238" x="139" y="50"/><text fill="#000000" font-family="sans-serif" font-size="14" font-weight="bold" lengthAdjust="spacing" textLength="40" x="149" y="72.9951">Input</text><text fill="#000000" font-family="sans-serif" font-size="12" lengthAdjust="spacing" textLength="12" x="149" y="87.4355">---</text><text fill="#000000" font-family="sans-serif" font-size="12" lengthAdjust="spacing" textLength="218" x="149" y="101.4043">Input Matched Tumor/Normal BAMs</text><rect fill="#F1F1F1" height="64.2344" rx="12.5" ry="12.5" style="stroke:#181818;stroke-width:0.5;" width="358" x="79" y="134.2344"/><text fill="#000000" font-family="sans-serif" font-size="14" font-weight="bold" lengthAdjust="spacing" textLength="122" x="89" y="157.2295">Input Validation</text><text fill="#000000" font-family="sans-serif" font-size="12" lengthAdjust="spacing" textLength="12" x="89" y="171.6699">---</text><text fill="#000000" font-family="sans-serif" font-size="12" lengthAdjust="spacing" textLength="338" x="89" y="185.6387">Validate the input BAMs and corresponding index files</text><line style="stroke:#181818;stroke-width:1.5;" x1="142" x2="403" y1="218.4688" y2="218.4688"/><rect fill="none" height="422.1563" style="stroke:#000000;stroke-width:1.5;" width="262" x="11" y="228.4688"/><path d="M64,228.4688 L64,237.7656 L54,247.7656 L11,247.7656 " fill="none" style="stroke:#000000;stroke-width:1.5;"/><text fill="#000000" font-family="sans-serif" font-size="14" lengthAdjust="spacing" textLength="43" x="14" y="242.4639">DELLY</text><rect fill="#F1F1F1" height="64.2344" rx="12.5" ry="12.5" style="stroke:#181818;stroke-width:0.5;" width="154" x="65" y="264.7656"/><text fill="#000000" font-family="sans-serif" font-size="14" font-weight="bold" lengthAdjust="spacing" textLength="83" x="75" y="287.7607">DELLY sSV</text><text fill="#000000" font-family="sans-serif" font-size="12" lengthAdjust="spacing" textLength="12" x="75" y="302.2012">---</text><text fill="#000000" font-family="sans-serif" font-size="12" lengthAdjust="spacing" textLength="134" x="75" y="316.1699">Call sSVs using DELLY</text><rect fill="#F1F1F1" height="78.2031" rx="12.5" ry="12.5" style="stroke:#181818;stroke-width:0.5;" width="242" x="21" y="364"/><text fill="#000000" font-family="sans-serif" font-size="14" font-weight="bold" lengthAdjust="spacing" textLength="159" x="31" y="386.9951">Query Sample Name</text><text fill="#000000" font-family="sans-serif" font-size="12" lengthAdjust="spacing" textLength="12" x="31" y="401.4355">---</text><text fill="#000000" font-family="sans-serif" font-size="12" lengthAdjust="spacing" textLength="222" x="31" y="415.4043">Query Tumor/Normal sample names</text><text fill="#000000" font-family="sans-serif" font-size="12" lengthAdjust="spacing" textLength="92" x="31" y="429.373">using BCFtools</text><rect fill="#F1F1F1" height="64.2344" rx="12.5" ry="12.5" style="stroke:#181818;stroke-width:0.5;" width="239" x="22.5" y="469.1875"/><text fill="#000000" font-family="sans-serif" font-size="14" font-weight="bold" lengthAdjust="spacing" textLength="75" x="32.5" y="492.1826">Filter sSV</text><text fill="#000000" font-family="sans-serif" font-size="12" lengthAdjust="spacing" textLength="12" x="32.5" y="506.623">---</text><text fill="#000000" font-family="sans-serif" font-size="12" lengthAdjust="spacing" textLength="219" x="32.5" y="520.5918">Filter out germline SVs using DELLY</text><rect fill="#F1F1F1" height="78.2031" rx="12.5" ry="12.5" style="stroke:#181818;stroke-width:0.5;" width="181" x="51.5" y="560.4219"/><text fill="#000000" font-family="sans-serif" font-size="14" font-weight="bold" lengthAdjust="spacing" textLength="93" x="61.5" y="583.417">CIRCOS plot</text><text fill="#000000" font-family="sans-serif" font-size="12" lengthAdjust="spacing" textLength="12" x="61.5" y="597.8574">---</text><text fill="#000000" font-family="sans-serif" font-size="12" lengthAdjust="spacing" textLength="161" x="61.5" y="611.8262">Plot CIRCOS for DELLY gSV</text><text fill="#000000" font-family="sans-serif" font-size="12" lengthAdjust="spacing" textLength="36" x="61.5" y="625.7949">(PNG)</text><rect fill="none" height="217.7188" style="stroke:#000000;stroke-width:1.5;" width="204" x="301" y="334.6875"/><path d="M353,334.6875 L353,343.9844 L343,353.9844 L301,353.9844 " fill="none" style="stroke:#000000;stroke-width:1.5;"/><text fill="#000000" font-family="sans-serif" font-size="14" lengthAdjust="spacing" textLength="42" x="304" y="348.6826">Manta</text><rect fill="#F1F1F1" height="64.2344" rx="12.5" ry="12.5" style="stroke:#181818;stroke-width:0.5;" width="150" x="328" y="370.9844"/><text fill="#000000" font-family="sans-serif" font-size="14" font-weight="bold" lengthAdjust="spacing" textLength="82" x="338" y="393.9795">Manta sSV</text><text fill="#000000" font-family="sans-serif" font-size="12" lengthAdjust="spacing" textLength="12" x="338" y="408.4199">---</text><text fill="#000000" font-family="sans-serif" font-size="12" lengthAdjust="spacing" textLength="130" x="338" y="422.3887">Call SVs using Manta</text><rect fill="#F1F1F1" height="78.2031" rx="12.5" ry="12.5" style="stroke:#181818;stroke-width:0.5;" width="184" x="311" y="462.2031"/><text fill="#000000" font-family="sans-serif" font-size="14" font-weight="bold" lengthAdjust="spacing" textLength="93" x="321" y="485.1982">CIRCOS plot</text><text fill="#000000" font-family="sans-serif" font-size="12" lengthAdjust="spacing" textLength="12" x="321" y="499.6387">---</text><text fill="#000000" font-family="sans-serif" font-size="12" lengthAdjust="spacing" textLength="164" x="321" y="513.6074">Plot CIRCOS for Manta gSV</text><text fill="#000000" font-family="sans-serif" font-size="12" lengthAdjust="spacing" textLength="36" x="321" y="527.5762">(PNG)</text><line style="stroke:#181818;stroke-width:1.5;" x1="142" x2="403" y1="670.625" y2="670.625"/><ellipse cx="258" cy="701.625" rx="11" ry="11" style="stroke:#222222;stroke-width:1.0;fill:none;"/><ellipse cx="258" cy="701.625" fill="#222222" rx="6" ry="6" style="stroke:#111111;stroke-width:1.0;"/><line style="stroke:#181818;stroke-width:1.0;" x1="258" x2="258" y1="30" y2="50"/><polygon fill="#181818" points="254,40,258,50,262,40,258,44" style="stroke:#181818;stroke-width:1.0;"/><line style="stroke:#181818;stroke-width:1.0;" x1="258" x2="258" y1="114.2344" y2="134.2344"/><polygon fill="#181818" points="254,124.2344,258,134.2344,262,124.2344,258,128.2344" style="stroke:#181818;stroke-width:1.0;"/><line style="stroke:#181818;stroke-width:1.0;" x1="142" x2="142" y1="329" y2="364"/><polygon fill="#181818" points="138,354,142,364,146,354,142,358" style="stroke:#181818;stroke-width:1.0;"/><line style="stroke:#181818;stroke-width:1.0;" x1="142" x2="142" y1="442.2031" y2="469.1875"/><polygon fill="#181818" points="138,459.1875,142,469.1875,146,459.1875,142,463.1875" style="stroke:#181818;stroke-width:1.0;"/><line style="stroke:#181818;stroke-width:1.0;" x1="142" x2="142" y1="533.4219" y2="560.4219"/><polygon fill="#181818" points="138,550.4219,142,560.4219,146,550.4219,142,554.4219" style="stroke:#181818;stroke-width:1.0;"/><line style="stroke:#181818;stroke-width:1.0;" x1="403" x2="403" y1="435.2188" y2="462.2031"/><polygon fill="#181818" points="399,452.2031,403,462.2031,407,452.2031,403,456.2031" style="stroke:#181818;stroke-width:1.0;"/><line style="stroke:#181818;stroke-width:1.0;" x1="142" x2="142" y1="219.9688" y2="264.7656"/><polygon fill="#181818" points="138,254.7656,142,264.7656,146,254.7656,142,258.7656" style="stroke:#181818;stroke-width:1.0;"/><line style="stroke:#181818;stroke-width:1.0;" x1="403" x2="403" y1="219.9688" y2="370.9844"/><polygon fill="#181818" points="399,360.9844,403,370.9844,407,360.9844,403,364.9844" style="stroke:#181818;stroke-width:1.0;"/><line style="stroke:#181818;stroke-width:1.0;" x1="142" x2="142" y1="638.625" y2="670.625"/><polygon fill="#181818" points="138,660.625,142,670.625,146,660.625,142,664.625" style="stroke:#181818;stroke-width:1.0;"/><line style="stroke:#181818;stroke-width:1.0;" x1="403" x2="403" y1="540.4063" y2="670.625"/><polygon fill="#181818" points="399,660.625,403,670.625,407,660.625,403,664.625" style="stroke:#181818;stroke-width:1.0;"/><line style="stroke:#181818;stroke-width:1.0;" x1="258" x2="258" y1="198.4688" y2="218.4688"/><polygon fill="#181818" points="254,208.4688,258,218.4688,262,208.4688,258,212.4688" style="stroke:#181818;stroke-width:1.0;"/><line style="stroke:#181818;stroke-width:1.0;" x1="258" x2="258" y1="672.125" y2="690.625"/><polygon fill="#181818" points="254,680.625,258,690.625,262,680.625,258,684.625" style="stroke:#181818;stroke-width:1.0;"/><!--MD5=[0276b965560b45fb9cae9e2983c09f20]
@startuml
skinparam SwimlaneTitleFontStyle bold

start

:==Input
- - -
Input Matched Tumor/Normal BAMs;
:==Input Validation
- - -
Validate the input BAMs and corresponding index files;

split
partition "DELLY" {
    :==DELLY sSV
    - - -
    Call sSVs using DELLY;
    :==Query Sample Name
    - - -
    Query Tumor/Normal sample names
    using BCFtools;
    :==Filter sSV
    - - -
    Filter out germline SVs using DELLY;
    :==CIRCOS plot
    - - -
    Plot CIRCOS for DELLY gSV
    (PNG);
    }

split again
partition "Manta" {
    :==Manta sSV
    - - -
    Call SVs using Manta;
    :==CIRCOS plot
    - - -
    Plot CIRCOS for Manta gSV
    (PNG);
    }
end split
stop
@enduml

PlantUML version 1.2022.6(Tue Jun 21 17:34:49 GMT 2022)
(GPL source distribution)
Java Runtime: OpenJDK Runtime Environment
JVM: OpenJDK 64-Bit Server VM
Default Encoding: UTF-8
Language: en
Country: US
--></g></svg>