<svg xmlns="http://www.w3.org/2000/svg" xmlns:xlink="http://www.w3.org/1999/xlink" xmlns:lucid="lucid" width="1436" height="660"><g transform="translate(-100 -440)" lucid:page-tab-id="0_0"><path d="M366.85 508c0-4.42 3.6-8 8-8H552c4.42 0 8 3.58 8 8v104c0 4.42-3.58 8-8 8H374.85c-4.4 0-8-3.58-8-8z" stroke="#000" stroke-opacity="0" stroke-width="2" fill="#ff8839"/><use xlink:href="#a" transform="matrix(1,0,0,1,371.8534472146564,505) translate(42.099999999999994 47.8)"/><use xlink:href="#b" transform="matrix(1,0,0,1,371.8534472146564,505) translate(4.450000000000003 69.4)"/><use xlink:href="#c" transform="matrix(1,0,0,1,371.8534472146564,505) translate(73.7 69.4)"/><use xlink:href="#d" transform="matrix(1,0,0,1,371.8534472146564,505) translate(103.7 69.4)"/><use xlink:href="#e" transform="matrix(1,0,0,1,371.8534472146564,505) translate(147.64999999999998 69.4)"/><path d="M640 511.42c0-4.42 3.58-8 8-8h184c4.42 0 8 3.58 8 8v101.72c0 4.42-3.58 8-8 8H648c-4.42 0-8-3.58-8-8z" stroke="#000" stroke-opacity="0" stroke-width="2" fill="#ff8839"/><use xlink:href="#f" transform="matrix(1,0,0,1,645,508.42293536316777) translate(32.62499999999999 46.8)"/><use xlink:href="#g" transform="matrix(1,0,0,1,645,508.42293536316777) translate(3.5249999999999915 68.4)"/><use xlink:href="#h" transform="matrix(1,0,0,1,645,508.42293536316777) translate(39.37499999999999 68.4)"/><use xlink:href="#i" transform="matrix(1,0,0,1,645,508.42293536316777) translate(121.22500000000001 68.4)"/><path d="M140 520.7c0-4.4 3.54-8.56 7.9-9.26l131.05-20.98c4.37-.7 7.9 2.32 7.9 6.74v125.6c0 4.42-3.58 8-8 8H148c-4.42 0-8-3.58-8-8z" stroke="#333" fill="#fff"/><use xlink:href="#j" transform="matrix(1,0,0,1,145,517.8) translate(28.025 14.899999999999993)"/><use xlink:href="#k" transform="matrix(1,0,0,1,145,517.8) translate(28.049999999999997 36.49999999999999)"/><use xlink:href="#l" transform="matrix(1,0,0,1,145,517.8) translate(63.05 36.49999999999999)"/><use xlink:href="#m" transform="matrix(1,0,0,1,145,517.8) translate(14.549999999999997 58.099999999999994)"/><use xlink:href="#n" transform="matrix(1,0,0,1,145,517.8) translate(77.45 58.099999999999994)"/><use xlink:href="#o" transform="matrix(1,0,0,1,145,517.8) translate(112.45 58.099999999999994)"/><use xlink:href="#p" transform="matrix(1,0,0,1,145,517.8) translate(4.574999999999996 79.70000000000002)"/><use xlink:href="#q" transform="matrix(1,0,0,1,145,517.8) translate(78.525 79.70000000000002)"/><use xlink:href="#r" transform="matrix(1,0,0,1,145,517.8) translate(39.55 101.30000000000001)"/><path d="M287.85 560.32h39.23s.02 0 .02-.03c0-.02 0-.03.03-.03h23.34" stroke="#333" fill="none"/><path d="M287.87 560.82h-.52v-1h.52z" fill="#333"/><path d="M365.24 560.27l-14.27 4.63v-9.27z" stroke="#333" fill="#333"/><path d="M570 948c0-4.42 3.58-8 8-8h324c4.42 0 8 3.58 8 8v104c0 4.42-3.58 8-8 8H578c-4.42 0-8-3.58-8-8z" stroke="#000" stroke-opacity="0" stroke-width="2" fill="#ff8839"/><use xlink:href="#s" transform="matrix(1,0,0,1,575,945) translate(27.225000000000023 37)"/><use xlink:href="#t" transform="matrix(1,0,0,1,575,945) translate(44.675 58.6)"/><use xlink:href="#u" transform="matrix(1,0,0,1,575,945) translate(79.675 58.6)"/><use xlink:href="#v" transform="matrix(1,0,0,1,575,945) translate(114.675 58.6)"/><use xlink:href="#w" transform="matrix(1,0,0,1,575,945) translate(177.575 58.6)"/><use xlink:href="#x" transform="matrix(1,0,0,1,575,945) translate(214.47500000000002 58.6)"/><use xlink:href="#y" transform="matrix(1,0,0,1,575,945) translate(247.425 58.6)"/><use xlink:href="#z" transform="matrix(1,0,0,1,575,945) translate(12.349999999999994 80.20000000000002)"/><use xlink:href="#A" transform="matrix(1,0,0,1,575,945) translate(144.85 80.20000000000002)"/><use xlink:href="#B" transform="matrix(1,0,0,1,575,945) translate(168.85 80.20000000000002)"/><use xlink:href="#C" transform="matrix(1,0,0,1,575,945) translate(253.79999999999998 80.20000000000002)"/><use xlink:href="#D" transform="matrix(1,0,0,1,575,945) translate(277.79999999999995 80.20000000000002)"/><path d="M570 709.35c0-4.42 3.58-8 8-8h324c4.42 0 8 3.58 8 8v166.8c0 4.42-3.58 8-8 8H578c-4.42 0-8-3.58-8-8z" stroke="#000" stroke-opacity="0" stroke-width="2" fill="#ff8839"/><g><use xlink:href="#E" transform="matrix(1,0,0,1,575,706.3499999999837) translate(41.625 14.500000000000009)"/><use xlink:href="#F" transform="matrix(1,0,0,1,575,706.3499999999837) translate(10.650000000000006 36.10000000000001)"/><use xlink:href="#G" transform="matrix(1,0,0,1,575,706.3499999999837) translate(47.60000000000001 36.10000000000001)"/><use xlink:href="#H" transform="matrix(1,0,0,1,575,706.3499999999837) translate(126.45000000000002 36.10000000000001)"/><use xlink:href="#I" transform="matrix(1,0,0,1,575,706.3499999999837) translate(146.45000000000002 36.10000000000001)"/><use xlink:href="#J" transform="matrix(1,0,0,1,575,706.3499999999837) translate(176.45000000000002 36.10000000000001)"/><use xlink:href="#K" transform="matrix(1,0,0,1,575,706.3499999999837) translate(206.45000000000002 36.10000000000001)"/><use xlink:href="#L" transform="matrix(1,0,0,1,575,706.3499999999837) translate(265.4 36.10000000000001)"/><use xlink:href="#M" transform="matrix(1,0,0,1,575,706.3499999999837) translate(54.124999999999986 57.70000000000001)"/><use xlink:href="#J" transform="matrix(1,0,0,1,575,706.3499999999837) translate(95.02499999999998 57.70000000000001)"/><use xlink:href="#N" transform="matrix(1,0,0,1,575,706.3499999999837) translate(125.02499999999999 57.70000000000001)"/><use xlink:href="#O" transform="matrix(1,0,0,1,575,706.3499999999837) translate(154.02499999999998 57.70000000000001)"/><use xlink:href="#P" transform="matrix(1,0,0,1,575,706.3499999999837) translate(239.97500000000002 57.70000000000001)"/><use xlink:href="#Q" transform="matrix(1,0,0,1,575,706.3499999999837) translate(103.29999999999998 79.30000000000003)"/><use xlink:href="#R" transform="matrix(1,0,0,1,575,706.3499999999837) translate(1.1750000000000114 100.90000000000002)"/><use xlink:href="#c" transform="matrix(1,0,0,1,575,706.3499999999837) translate(52.17500000000001 100.90000000000002)"/><use xlink:href="#S" transform="matrix(1,0,0,1,575,706.3499999999837) translate(82.17500000000001 100.90000000000002)"/><use xlink:href="#T" transform="matrix(1,0,0,1,575,706.3499999999837) translate(145.07500000000002 100.90000000000002)"/><use xlink:href="#w" transform="matrix(1,0,0,1,575,706.3499999999837) translate(204.02500000000003 100.90000000000002)"/><use xlink:href="#J" transform="matrix(1,0,0,1,575,706.3499999999837) translate(240.92500000000004 100.90000000000002)"/><use xlink:href="#U" transform="matrix(1,0,0,1,575,706.3499999999837) translate(270.925 100.90000000000002)"/><use xlink:href="#V" transform="matrix(1,0,0,1,575,706.3499999999837) translate(123.05 122.50000000000001)"/><use xlink:href="#P" transform="matrix(1,0,0,1,575,706.3499999999837) translate(171.05 122.50000000000001)"/><use xlink:href="#W" transform="matrix(1,0,0,1,575,706.3499999999837) translate(19.725000000000023 144.1)"/><use xlink:href="#X" transform="matrix(1,0,0,1,575,706.3499999999837) translate(295.275 144.1)"/><use xlink:href="#Y" transform="matrix(1,0,0,1,575,706.3499999999837) translate(92.05 165.70000000000002)"/><use xlink:href="#Z" transform="matrix(1,0,0,1,575,706.3499999999837) translate(147 165.70000000000002)"/></g><path d="M1020 668c0-4.42 3.58-8 8-8h204c4.42 0 8 3.58 8 8v104c0 4.42-3.58 8-8 8h-204c-4.42 0-8-3.58-8-8z" stroke="#000" stroke-opacity="0" stroke-width="2" fill="#ff8839"/><g><use xlink:href="#aa" transform="matrix(1,0,0,1,1025,665) translate(21.200000000000003 47.8)"/><use xlink:href="#ab" transform="matrix(1,0,0,1,1025,665) translate(14.199999999999989 69.4)"/><use xlink:href="#ac" transform="matrix(1,0,0,1,1025,665) translate(58.99999999999999 69.4)"/><use xlink:href="#ad" transform="matrix(1,0,0,1,1025,665) translate(89 69.4)"/><use xlink:href="#ae" transform="matrix(1,0,0,1,1025,665) translate(162.8 69.4)"/></g><path d="M1320 668c0-4.42 3.58-8 8-8h144c4.42 0 8 3.58 8 8v104c0 4.42-3.58 8-8 8h-144c-4.42 0-8-3.58-8-8z" stroke="#000" stroke-opacity="0" stroke-width="2" fill="#ff8839"/><g><use xlink:href="#af" transform="matrix(1,0,0,1,1325,665) translate(2.5250000000000057 37)"/><use xlink:href="#ag" transform="matrix(1,0,0,1,1325,665) translate(5.525000000000006 58.6)"/><use xlink:href="#ah" transform="matrix(1,0,0,1,1325,665) translate(85.47500000000001 58.6)"/><use xlink:href="#ai" transform="matrix(1,0,0,1,1325,665) translate(34.525 80.20000000000002)"/></g><path d="M560.5 560h63.12" stroke="#333" fill="none"/><path d="M560.5 560.5h-.5v-1h.5z" fill="#333"/><path d="M638.38 560l-14.26 4.64v-9.28z" stroke="#333" fill="#333"/><path d="M740 621.64v63.33" stroke="#333" fill="none"/><path d="M740.5 621.65h-1v-.5h1z" fill="#333"/><path d="M740 699.73l-4.64-14.26h9.28z" stroke="#333" fill="#333"/><path d="M740 939.5v-38.97" stroke="#333" fill="none"/><path d="M740.5 940h-1v-.5h1z" fill="#333"/><path d="M740 885.77l4.64 14.26h-9.28z" stroke="#333" fill="#333"/><path d="M910.5 792.75H953c6.63 0 12-5.37 12-12V732c0-6.63 5.37-12 12-12h26.62" stroke="#333" fill="none"/><path d="M910.5 793.25h-.5v-1h.5z" fill="#333"/><path d="M1018.38 720l-14.26 4.64v-9.28z" stroke="#333" fill="#333"/><path d="M840.5 562.28H1118c6.63 0 12 5.37 12 12v69.34" stroke="#333" fill="none"/><path d="M840.5 562.78h-.5v-1h.5z" fill="#333"/><path d="M1130 658.38l-4.64-14.26h9.28z" stroke="#333" fill="#333"/><path d="M1240.5 720h63.12" stroke="#333" fill="none"/><path d="M1240.5 720.5h-.5v-1h.5z" fill="#333"/><path d="M1318.38 720l-14.26 4.64v-9.28z" stroke="#333" fill="#333"/><defs><path fill="#fff" d="M89 0H52L20-190h33L74-25l89-165h34" id="aj"/><path fill="#fff" d="M165-48c-4 18 1 34 23 27l-3 20c-29 8-62 0-52-35h-2C116-14 99 4 63 4 30 4 8-16 8-49c0-68 71-67 138-67 10-26 0-56-31-54-26 1-42 9-47 31l-32-5c8-67 160-71 144 15-5 28-9 54-15 81zM42-50c3 52 80 24 89-6 7-12 7-24 11-38-47 1-103-4-100 44" id="ak"/><path fill="#fff" d="M6 0l50-261h32L37 0H6" id="al"/><path fill="#fff" d="M50-231l6-30h32l-6 30H50zM6 0l37-190h31L37 0H6" id="am"/><path fill="#fff" d="M133-28C103 26-5 8 13-77c13-62 24-115 90-117 29-1 46 15 56 35l19-102h32L160 0h-30zM45-64c-2 27 10 43 35 43 54-1 69-50 69-103 0-29-15-46-42-46-53-1-58 58-62 106" id="an"/><path fill="#fff" d="M51-54c-9 22 5 41 31 30L79-1C43 14 10-4 19-52l22-115H19l5-23h22l19-43h21l-9 43h35l-4 23H73" id="ao"/><path fill="#fff" d="M111-194c62-3 86 47 72 106H45c-7 38 6 69 45 68 27-1 43-14 53-32l24 11C152-15 129 4 87 4 38 3 12-23 12-71c0-70 32-119 99-123zm44 81c14-66-71-72-95-28-4 8-8 17-11 28h106" id="ap"/><path fill="#fff" d="M-28 44V31h207v13H-28" id="aq"/><path fill="#fff" d="M76-167L44 0H12l33-167H18l4-23h27c3-47 25-81 82-69l-4 24c-35-8-44 15-46 45h37l-5 23H76" id="ar"/><path fill="#fff" d="M44-154l7-36h35l-8 36H44zM14 0l7-36h35L49 0H14" id="as"/><g id="a"><use transform="matrix(0.05,0,0,0.05,0,0)" xlink:href="#aj"/><use transform="matrix(0.05,0,0,0.05,9,0)" xlink:href="#ak"/><use transform="matrix(0.05,0,0,0.05,19,0)" xlink:href="#al"/><use transform="matrix(0.05,0,0,0.05,22.95,0)" xlink:href="#am"/><use transform="matrix(0.05,0,0,0.05,26.899999999999995,0)" xlink:href="#an"/><use transform="matrix(0.05,0,0,0.05,36.9,0)" xlink:href="#ak"/><use transform="matrix(0.05,0,0,0.05,46.9,0)" xlink:href="#ao"/><use transform="matrix(0.05,0,0,0.05,51.900000000000006,0)" xlink:href="#ap"/><use transform="matrix(0.05,0,0,0.05,61.900000000000006,0)" xlink:href="#aq"/><use transform="matrix(0.05,0,0,0.05,71.9,0)" xlink:href="#ar"/><use transform="matrix(0.05,0,0,0.05,76.9,0)" xlink:href="#am"/><use transform="matrix(0.05,0,0,0.05,80.85000000000001,0)" xlink:href="#al"/><use transform="matrix(0.05,0,0,0.05,84.80000000000001,0)" xlink:href="#ap"/><use transform="matrix(0.05,0,0,0.05,94.80000000000001,0)" xlink:href="#as"/></g><path fill="#fff" d="M119 0H84L31-248h34l41 218 126-218h36" id="at"/><g id="b"><use transform="matrix(0.05,0,0,0.05,0,0)" xlink:href="#at"/><use transform="matrix(0.05,0,0,0.05,11.35,0)" xlink:href="#ak"/><use transform="matrix(0.05,0,0,0.05,21.35,0)" xlink:href="#al"/><use transform="matrix(0.05,0,0,0.05,25.3,0)" xlink:href="#am"/><use transform="matrix(0.05,0,0,0.05,29.25,0)" xlink:href="#an"/><use transform="matrix(0.05,0,0,0.05,39.25,0)" xlink:href="#ak"/><use transform="matrix(0.05,0,0,0.05,49.25,0)" xlink:href="#ao"/><use transform="matrix(0.05,0,0,0.05,54.25,0)" xlink:href="#ap"/></g><path fill="#fff" d="M67-158c15-20 31-36 64-36 94 0 33 127 27 194h-32l25-140c3-38-53-32-70-12C52-117 51-51 37 0H6l51-261h31" id="au"/><g id="c"><use transform="matrix(0.05,0,0,0.05,0,0)" xlink:href="#ao"/><use transform="matrix(0.05,0,0,0.05,5,0)" xlink:href="#au"/><use transform="matrix(0.05,0,0,0.05,15,0)" xlink:href="#ap"/></g><path fill="#fff" d="M67-158c22-48 132-52 116 29L158 0h-32l25-140c3-38-53-32-70-12C52-117 51-52 38 0H6l36-190h30" id="av"/><path fill="#fff" d="M67-162c32-53 139-36 121 50C175-51 163 2 97 4 68 4 52-11 42-31 38 6 28 39 22 75H-9l50-265h29c-1 10 0 20-3 28zm89 36c0-26-10-43-35-43-54 0-67 50-69 103-1 29 14 45 42 46 53 0 62-58 62-106" id="aw"/><path fill="#fff" d="M67 3c-93-2-31-127-26-193h32L48-50c-3 39 53 32 70 12 30-34 30-101 43-152h32L157 0h-30c1-10 6-24 4-33-14 20-29 37-64 36" id="ax"/><g id="d"><use transform="matrix(0.05,0,0,0.05,0,0)" xlink:href="#am"/><use transform="matrix(0.05,0,0,0.05,3.95,0)" xlink:href="#av"/><use transform="matrix(0.05,0,0,0.05,13.949999999999998,0)" xlink:href="#aw"/><use transform="matrix(0.05,0,0,0.05,23.95,0)" xlink:href="#ax"/><use transform="matrix(0.05,0,0,0.05,33.95,0)" xlink:href="#ao"/></g><path fill="#fff" d="M55-144c13 50 104 24 104 88C159 21 15 23 1-39l26-10c6 40 102 42 102-4-13-50-104-23-104-87 0-71 143-71 148-8l-29 4c-5-35-85-37-89 0" id="ay"/><g id="e"><use transform="matrix(0.05,0,0,0.05,0,0)" xlink:href="#ar"/><use transform="matrix(0.05,0,0,0.05,5,0)" xlink:href="#am"/><use transform="matrix(0.05,0,0,0.05,8.95,0)" xlink:href="#al"/><use transform="matrix(0.05,0,0,0.05,12.899999999999999,0)" xlink:href="#ap"/><use transform="matrix(0.05,0,0,0.05,22.9,0)" xlink:href="#ay"/></g><path fill="#fff" d="M44-68c0 29 11 47 38 47 30 0 42-19 51-41l28 9C148-21 126 4 82 4 31 4 10-29 12-85c3-77 74-140 146-93 12 8 15 23 18 40l-31 5c-1-22-13-36-36-36-52 0-65 49-65 101" id="az"/><path fill="#fff" d="M194-120c59 52 2 134-86 124-53-6-90-18-98-63l31-7c8 30 29 43 70 43 46 0 84-17 71-62-32-43-135-20-137-98-3-89 178-90 191-16l-30 9c-8-48-127-53-127 5 0 53 81 35 115 65" id="aA"/><path fill="#fff" d="M248-139C247-14 144 9 11 0l48-248c105-6 190 8 189 109zm-34 0c1-70-52-87-126-82L50-27c98 7 163-21 164-112" id="aB"/><path fill="#fff" d="M198-190L69 30C53 58 25 83-20 72c4-11-1-27 19-22 33-1 43-29 59-52L20-190h32L79-34l84-156h35" id="aC"/><g id="f"><use transform="matrix(0.05,0,0,0.05,0,0)" xlink:href="#az"/><use transform="matrix(0.05,0,0,0.05,9,0)" xlink:href="#ak"/><use transform="matrix(0.05,0,0,0.05,19,0)" xlink:href="#al"/><use transform="matrix(0.05,0,0,0.05,22.95,0)" xlink:href="#al"/><use transform="matrix(0.05,0,0,0.05,26.899999999999995,0)" xlink:href="#aq"/><use transform="matrix(0.05,0,0,0.05,36.9,0)" xlink:href="#ay"/><use transform="matrix(0.05,0,0,0.05,45.9,0)" xlink:href="#aA"/><use transform="matrix(0.05,0,0,0.05,57.900000000000006,0)" xlink:href="#at"/><use transform="matrix(0.05,0,0,0.05,69.9,0)" xlink:href="#aq"/><use transform="matrix(0.05,0,0,0.05,79.9,0)" xlink:href="#aB"/><use transform="matrix(0.05,0,0,0.05,92.85000000000001,0)" xlink:href="#ap"/><use transform="matrix(0.05,0,0,0.05,102.85000000000001,0)" xlink:href="#al"/><use transform="matrix(0.05,0,0,0.05,106.80000000000001,0)" xlink:href="#al"/><use transform="matrix(0.05,0,0,0.05,110.75,0)" xlink:href="#aC"/><use transform="matrix(0.05,0,0,0.05,119.75,0)" xlink:href="#as"/></g><path fill="#fff" d="M125-24c46 0 70-25 89-51l25 16C214-24 183 4 123 4 8 4-5-146 60-208c32-50 158-61 191-5 5 7 9 14 11 22l-32 10c-9-28-33-43-69-43-74 0-108 51-108 125 0 46 24 75 72 75" id="aD"/><g id="g"><use transform="matrix(0.05,0,0,0.05,0,0)" xlink:href="#aD"/><use transform="matrix(0.05,0,0,0.05,12.950000000000001,0)" xlink:href="#ak"/><use transform="matrix(0.05,0,0,0.05,22.950000000000003,0)" xlink:href="#al"/><use transform="matrix(0.05,0,0,0.05,26.900000000000002,0)" xlink:href="#al"/></g><path fill="#fff" d="M66-151c12-25 30-51 66-40l-6 26C45-176 58-65 38 0H6l36-190h30" id="aE"/><g id="h"><use transform="matrix(0.05,0,0,0.05,0,0)" xlink:href="#aA"/><use transform="matrix(0.05,0,0,0.05,12,0)" xlink:href="#ao"/><use transform="matrix(0.05,0,0,0.05,17,0)" xlink:href="#aE"/><use transform="matrix(0.05,0,0,0.05,22.95,0)" xlink:href="#ax"/><use transform="matrix(0.05,0,0,0.05,32.95,0)" xlink:href="#az"/><use transform="matrix(0.05,0,0,0.05,41.95,0)" xlink:href="#ao"/><use transform="matrix(0.05,0,0,0.05,46.95,0)" xlink:href="#ax"/><use transform="matrix(0.05,0,0,0.05,56.95,0)" xlink:href="#aE"/><use transform="matrix(0.05,0,0,0.05,62.900000000000006,0)" xlink:href="#ak"/><use transform="matrix(0.05,0,0,0.05,72.9,0)" xlink:href="#al"/></g><g id="i"><use transform="matrix(0.05,0,0,0.05,0,0)" xlink:href="#at"/><use transform="matrix(0.05,0,0,0.05,11.35,0)" xlink:href="#ak"/><use transform="matrix(0.05,0,0,0.05,21.35,0)" xlink:href="#aE"/><use transform="matrix(0.05,0,0,0.05,27.3,0)" xlink:href="#am"/><use transform="matrix(0.05,0,0,0.05,31.25,0)" xlink:href="#ak"/><use transform="matrix(0.05,0,0,0.05,41.25,0)" xlink:href="#av"/><use transform="matrix(0.05,0,0,0.05,51.25,0)" xlink:href="#ao"/><use transform="matrix(0.05,0,0,0.05,56.25,0)" xlink:href="#ay"/></g><path fill="#333" d="M24-231v-30h32v30H24zM24 0v-190h32V0H24" id="aF"/><path fill="#333" d="M117-194c89-4 53 116 60 194h-32v-121c0-31-8-49-39-48C34-167 62-67 57 0H25l-1-190h30c1 10-1 24 2 32 11-22 29-35 61-36" id="aG"/><path fill="#333" d="M115-194c55 1 70 41 70 98S169 2 115 4C84 4 66-9 55-30l1 105H24l-1-265h31l2 30c10-21 28-34 59-34zm-8 174c40 0 45-34 45-75s-6-73-45-74c-42 0-51 32-51 76 0 43 10 73 51 73" id="aH"/><path fill="#333" d="M84 4C-5 8 30-112 23-190h32v120c0 31 7 50 39 49 72-2 45-101 50-169h31l1 190h-30c-1-10 1-25-2-33-11 22-28 36-60 37" id="aI"/><path fill="#333" d="M59-47c-2 24 18 29 38 22v24C64 9 27 4 27-40v-127H5v-23h24l9-43h21v43h35v23H59v120" id="aJ"/><path fill="#333" d="M-5 72V49h209v23H-5" id="aK"/><path fill="#333" d="M96-169c-40 0-48 33-48 73s9 75 48 75c24 0 41-14 43-38l32 2c-6 37-31 61-74 61-59 0-76-41-82-99-10-93 101-131 147-64 4 7 5 14 7 22l-32 3c-4-21-16-35-41-35" id="aL"/><path fill="#333" d="M135-143c-3-34-86-38-87 0 15 53 115 12 119 90S17 21 10-45l28-5c4 36 97 45 98 0-10-56-113-15-118-90-4-57 82-63 122-42 12 7 21 19 24 35" id="aM"/><path fill="#333" d="M108 0H70L1-190h34L89-25l56-165h34" id="aN"/><path fill="#333" d="M33-154v-36h34v36H33zM33 0v-36h34V0H33" id="aO"/><g id="j"><use transform="matrix(0.05,0,0,0.05,0,0)" xlink:href="#aF"/><use transform="matrix(0.05,0,0,0.05,3.95,0)" xlink:href="#aG"/><use transform="matrix(0.05,0,0,0.05,13.949999999999998,0)" xlink:href="#aH"/><use transform="matrix(0.05,0,0,0.05,23.95,0)" xlink:href="#aI"/><use transform="matrix(0.05,0,0,0.05,33.95,0)" xlink:href="#aJ"/><use transform="matrix(0.05,0,0,0.05,38.95,0)" xlink:href="#aK"/><use transform="matrix(0.05,0,0,0.05,48.95,0)" xlink:href="#aL"/><use transform="matrix(0.05,0,0,0.05,57.95,0)" xlink:href="#aM"/><use transform="matrix(0.05,0,0,0.05,66.95,0)" xlink:href="#aN"/><use transform="matrix(0.05,0,0,0.05,75.95,0)" xlink:href="#aO"/></g><path fill="#333" d="M100-194c62-1 85 37 85 99 1 63-27 99-86 99S16-35 15-95c0-66 28-99 85-99zM99-20c44 1 53-31 53-75 0-43-8-75-51-75s-53 32-53 75 10 74 51 75" id="aP"/><path fill="#333" d="M100-194c63 0 86 42 84 106H49c0 40 14 67 53 68 26 1 43-12 49-29l28 8c-11 28-37 45-77 45C44 4 14-33 15-96c1-61 26-98 85-98zm52 81c6-60-76-77-97-28-3 7-6 17-6 28h103" id="aQ"/><g id="k"><use transform="matrix(0.05,0,0,0.05,0,0)" xlink:href="#aP"/><use transform="matrix(0.05,0,0,0.05,10,0)" xlink:href="#aG"/><use transform="matrix(0.05,0,0,0.05,20,0)" xlink:href="#aQ"/></g><path fill="#333" d="M210-169c-67 3-38 105-44 169h-31v-121c0-29-5-50-35-48C34-165 62-65 56 0H25l-1-190h30c1 10-1 24 2 32 10-44 99-50 107 0 11-21 27-35 58-36 85-2 47 119 55 194h-31v-121c0-29-5-49-35-48" id="aR"/><path fill="#333" d="M114-163C36-179 61-72 57 0H25l-1-190h30c1 12-1 29 2 39 6-27 23-49 58-41v29" id="aS"/><g id="l"><use transform="matrix(0.05,0,0,0.05,0,0)" xlink:href="#aJ"/><use transform="matrix(0.05,0,0,0.05,5,0)" xlink:href="#aI"/><use transform="matrix(0.05,0,0,0.05,15,0)" xlink:href="#aR"/><use transform="matrix(0.05,0,0,0.05,29.950000000000003,0)" xlink:href="#aP"/><use transform="matrix(0.05,0,0,0.05,39.95,0)" xlink:href="#aS"/></g><path fill="#333" d="M141-36C126-15 110 5 73 4 37 3 15-17 15-53c-1-64 63-63 125-63 3-35-9-54-41-54-24 1-41 7-42 31l-33-3c5-37 33-52 76-52 45 0 72 20 72 64v82c-1 20 7 32 28 27v20c-31 9-61-2-59-35zM48-53c0 20 12 33 32 33 41-3 63-29 60-74-43 2-92-5-92 41" id="aT"/><path fill="#333" d="M24 0v-261h32V0H24" id="aU"/><g id="m"><use transform="matrix(0.05,0,0,0.05,0,0)" xlink:href="#aM"/><use transform="matrix(0.05,0,0,0.05,9,0)" xlink:href="#aT"/><use transform="matrix(0.05,0,0,0.05,19,0)" xlink:href="#aR"/><use transform="matrix(0.05,0,0,0.05,33.95,0)" xlink:href="#aH"/><use transform="matrix(0.05,0,0,0.05,43.95,0)" xlink:href="#aU"/><use transform="matrix(0.05,0,0,0.05,47.900000000000006,0)" xlink:href="#aQ"/></g><path fill="#333" d="M85-194c31 0 48 13 60 33l-1-100h32l1 261h-30c-2-10 0-23-3-31C134-8 116 4 85 4 32 4 16-35 15-94c0-66 23-100 70-100zm9 24c-40 0-46 34-46 75 0 40 6 74 45 74 42 0 51-32 51-76 0-42-9-74-50-73" id="aV"/><g id="n"><use transform="matrix(0.05,0,0,0.05,0,0)" xlink:href="#aT"/><use transform="matrix(0.05,0,0,0.05,10,0)" xlink:href="#aG"/><use transform="matrix(0.05,0,0,0.05,20,0)" xlink:href="#aV"/></g><use transform="matrix(0.05,0,0,0.05,0,0)" xlink:href="#aT" id="o"/><path fill="#333" d="M106-169C34-169 62-67 57 0H25v-261h32l-1 103c12-21 28-36 61-36 89 0 53 116 60 194h-32v-121c2-32-8-49-39-48" id="aW"/><g id="p"><use transform="matrix(0.05,0,0,0.05,0,0)" xlink:href="#aR"/><use transform="matrix(0.05,0,0,0.05,14.950000000000001,0)" xlink:href="#aT"/><use transform="matrix(0.05,0,0,0.05,24.950000000000003,0)" xlink:href="#aJ"/><use transform="matrix(0.05,0,0,0.05,29.950000000000003,0)" xlink:href="#aL"/><use transform="matrix(0.05,0,0,0.05,38.95,0)" xlink:href="#aW"/><use transform="matrix(0.05,0,0,0.05,48.95,0)" xlink:href="#aQ"/><use transform="matrix(0.05,0,0,0.05,58.95,0)" xlink:href="#aV"/></g><g id="q"><use transform="matrix(0.05,0,0,0.05,0,0)" xlink:href="#aL"/><use transform="matrix(0.05,0,0,0.05,9,0)" xlink:href="#aP"/><use transform="matrix(0.05,0,0,0.05,19,0)" xlink:href="#aG"/><use transform="matrix(0.05,0,0,0.05,29,0)" xlink:href="#aJ"/><use transform="matrix(0.05,0,0,0.05,34,0)" xlink:href="#aS"/><use transform="matrix(0.05,0,0,0.05,39.95,0)" xlink:href="#aP"/><use transform="matrix(0.05,0,0,0.05,49.95,0)" xlink:href="#aU"/></g><g id="r"><use transform="matrix(0.05,0,0,0.05,0,0)" xlink:href="#aM"/><use transform="matrix(0.05,0,0,0.05,9,0)" xlink:href="#aT"/><use transform="matrix(0.05,0,0,0.05,19,0)" xlink:href="#aR"/><use transform="matrix(0.05,0,0,0.05,33.95,0)" xlink:href="#aH"/><use transform="matrix(0.05,0,0,0.05,43.95,0)" xlink:href="#aU"/><use transform="matrix(0.05,0,0,0.05,47.900000000000006,0)" xlink:href="#aQ"/></g><path fill="#fff" d="M124 0L87-78 21 0h-35l86-98-46-92h33l34 74 61-74h37l-83 92 50 98h-34" id="aX"/><path fill="#fff" d="M248-111c6-24 9-61-24-58-72 9-57 108-77 169h-31l26-142c3-37-50-30-64-10C52-115 50-51 37 0H6l36-190h30c-1 10-6 24-4 32 13-43 101-52 105 5 13-22 29-41 61-41 90 0 28 129 23 194h-31" id="aY"/><g id="s"><use transform="matrix(0.05,0,0,0.05,0,0)" xlink:href="#az"/><use transform="matrix(0.05,0,0,0.05,9,0)" xlink:href="#aE"/><use transform="matrix(0.05,0,0,0.05,14.949999999999998,0)" xlink:href="#ap"/><use transform="matrix(0.05,0,0,0.05,24.95,0)" xlink:href="#ak"/><use transform="matrix(0.05,0,0,0.05,34.95,0)" xlink:href="#ao"/><use transform="matrix(0.05,0,0,0.05,39.95,0)" xlink:href="#ap"/><use transform="matrix(0.05,0,0,0.05,49.95,0)" xlink:href="#aq"/><use transform="matrix(0.05,0,0,0.05,59.95,0)" xlink:href="#ak"/><use transform="matrix(0.05,0,0,0.05,69.95,0)" xlink:href="#ax"/><use transform="matrix(0.05,0,0,0.05,79.95,0)" xlink:href="#aX"/><use transform="matrix(0.05,0,0,0.05,88.95,0)" xlink:href="#am"/><use transform="matrix(0.05,0,0,0.05,92.9,0)" xlink:href="#al"/><use transform="matrix(0.05,0,0,0.05,96.85000000000001,0)" xlink:href="#am"/><use transform="matrix(0.05,0,0,0.05,100.80000000000001,0)" xlink:href="#ak"/><use transform="matrix(0.05,0,0,0.05,110.80000000000001,0)" xlink:href="#aE"/><use transform="matrix(0.05,0,0,0.05,116.75,0)" xlink:href="#aC"/><use transform="matrix(0.05,0,0,0.05,125.75,0)" xlink:href="#aq"/><use transform="matrix(0.05,0,0,0.05,135.75,0)" xlink:href="#ay"/><use transform="matrix(0.05,0,0,0.05,144.75,0)" xlink:href="#ak"/><use transform="matrix(0.05,0,0,0.05,154.75,0)" xlink:href="#aY"/><use transform="matrix(0.05,0,0,0.05,169.7,0)" xlink:href="#aw"/><use transform="matrix(0.05,0,0,0.05,179.7,0)" xlink:href="#al"/><use transform="matrix(0.05,0,0,0.05,183.64999999999998,0)" xlink:href="#ap"/><use transform="matrix(0.05,0,0,0.05,193.64999999999998,0)" xlink:href="#aq"/><use transform="matrix(0.05,0,0,0.05,203.64999999999998,0)" xlink:href="#ao"/><use transform="matrix(0.05,0,0,0.05,208.64999999999998,0)" xlink:href="#aC"/><use transform="matrix(0.05,0,0,0.05,217.64999999999998,0)" xlink:href="#aw"/><use transform="matrix(0.05,0,0,0.05,227.64999999999998,0)" xlink:href="#ap"/><use transform="matrix(0.05,0,0,0.05,237.64999999999998,0)" xlink:href="#aq"/><use transform="matrix(0.05,0,0,0.05,247.64999999999998,0)" xlink:href="#ar"/><use transform="matrix(0.05,0,0,0.05,252.64999999999998,0)" xlink:href="#am"/><use transform="matrix(0.05,0,0,0.05,256.59999999999997,0)" xlink:href="#al"/><use transform="matrix(0.05,0,0,0.05,260.54999999999995,0)" xlink:href="#ap"/><use transform="matrix(0.05,0,0,0.05,270.54999999999995,0)" xlink:href="#as"/></g><g id="t"><use transform="matrix(0.05,0,0,0.05,0,0)" xlink:href="#ak"/><use transform="matrix(0.05,0,0,0.05,10,0)" xlink:href="#an"/><use transform="matrix(0.05,0,0,0.05,20,0)" xlink:href="#an"/></g><path fill="#fff" d="M30-147c31-64 166-65 159 27C183-49 158 1 86 4 9 8 1-88 30-147zM88-20c53 0 68-48 68-100 0-31-11-51-44-50-52 1-68 46-68 97 0 32 13 53 44 53" id="aZ"/><g id="u"><use transform="matrix(0.05,0,0,0.05,0,0)" xlink:href="#aZ"/><use transform="matrix(0.05,0,0,0.05,10,0)" xlink:href="#av"/><use transform="matrix(0.05,0,0,0.05,20,0)" xlink:href="#ap"/></g><g id="v"><use transform="matrix(0.05,0,0,0.05,0,0)" xlink:href="#az"/><use transform="matrix(0.05,0,0,0.05,9,0)" xlink:href="#aZ"/><use transform="matrix(0.05,0,0,0.05,19,0)" xlink:href="#al"/><use transform="matrix(0.05,0,0,0.05,22.95,0)" xlink:href="#ax"/><use transform="matrix(0.05,0,0,0.05,32.95,0)" xlink:href="#aY"/><use transform="matrix(0.05,0,0,0.05,47.900000000000006,0)" xlink:href="#av"/></g><path fill="#fff" d="M188 0h-37l-8-164L71 0H34L18-190h31l8 164 75-164h34l8 164 74-164h31" id="ba"/><g id="w"><use transform="matrix(0.05,0,0,0.05,0,0)" xlink:href="#ba"/><use transform="matrix(0.05,0,0,0.05,12.950000000000001,0)" xlink:href="#am"/><use transform="matrix(0.05,0,0,0.05,16.900000000000002,0)" xlink:href="#ao"/><use transform="matrix(0.05,0,0,0.05,21.900000000000002,0)" xlink:href="#au"/></g><g id="x"><use transform="matrix(0.05,0,0,0.05,0,0)" xlink:href="#ao"/><use transform="matrix(0.05,0,0,0.05,5,0)" xlink:href="#ba"/><use transform="matrix(0.05,0,0,0.05,17.950000000000003,0)" xlink:href="#aZ"/></g><g id="y"><use transform="matrix(0.05,0,0,0.05,0,0)" xlink:href="#aE"/><use transform="matrix(0.05,0,0,0.05,5.95,0)" xlink:href="#aZ"/><use transform="matrix(0.05,0,0,0.05,15.949999999999998,0)" xlink:href="#ba"/><use transform="matrix(0.05,0,0,0.05,28.899999999999995,0)" xlink:href="#ay"/></g><path fill="#fff" d="M123-170H98l11-78h32zm-65 0H33l11-78h32" id="bb"/><path fill="#fff" d="M56 4L26-261h26L83 4H56" id="bc"/><g id="z"><use transform="matrix(0.05,0,0,0.05,0,0)" xlink:href="#bb"/><use transform="matrix(0.05,0,0,0.05,6.3500000000000005,0)" xlink:href="#ao"/><use transform="matrix(0.05,0,0,0.05,11.350000000000001,0)" xlink:href="#ax"/><use transform="matrix(0.05,0,0,0.05,21.35,0)" xlink:href="#aY"/><use transform="matrix(0.05,0,0,0.05,36.300000000000004,0)" xlink:href="#aZ"/><use transform="matrix(0.05,0,0,0.05,46.300000000000004,0)" xlink:href="#aE"/><use transform="matrix(0.05,0,0,0.05,52.25,0)" xlink:href="#bc"/><use transform="matrix(0.05,0,0,0.05,57.25,0)" xlink:href="#av"/><use transform="matrix(0.05,0,0,0.05,67.25,0)" xlink:href="#az"/><use transform="matrix(0.05,0,0,0.05,76.25,0)" xlink:href="#aZ"/><use transform="matrix(0.05,0,0,0.05,86.25,0)" xlink:href="#av"/><use transform="matrix(0.05,0,0,0.05,96.25,0)" xlink:href="#ao"/><use transform="matrix(0.05,0,0,0.05,101.25,0)" xlink:href="#aE"/><use transform="matrix(0.05,0,0,0.05,107.2,0)" xlink:href="#aZ"/><use transform="matrix(0.05,0,0,0.05,117.2,0)" xlink:href="#al"/><use transform="matrix(0.05,0,0,0.05,121.15,0)" xlink:href="#bb"/></g><g id="A"><use transform="matrix(0.05,0,0,0.05,0,0)" xlink:href="#ak"/><use transform="matrix(0.05,0,0,0.05,10,0)" xlink:href="#ay"/></g><path fill="#fff" d="M133-28C103 26-5 8 13-77c13-62 24-115 90-117 29-1 46 15 56 35 2-12 6-24 8-34h31L144 75h-31zM45-64c-2 27 10 43 35 43 54-1 69-50 69-103 0-29-15-46-42-46-53-1-58 58-62 106" id="bd"/><g id="B"><use transform="matrix(0.05,0,0,0.05,0,0)" xlink:href="#aE"/><use transform="matrix(0.05,0,0,0.05,5.95,0)" xlink:href="#ap"/><use transform="matrix(0.05,0,0,0.05,15.949999999999998,0)" xlink:href="#bd"/><use transform="matrix(0.05,0,0,0.05,25.950000000000003,0)" xlink:href="#ax"/><use transform="matrix(0.05,0,0,0.05,35.95,0)" xlink:href="#ap"/><use transform="matrix(0.05,0,0,0.05,45.95,0)" xlink:href="#ay"/><use transform="matrix(0.05,0,0,0.05,54.95,0)" xlink:href="#ao"/><use transform="matrix(0.05,0,0,0.05,59.95,0)" xlink:href="#ap"/><use transform="matrix(0.05,0,0,0.05,69.95,0)" xlink:href="#an"/></g><path fill="#fff" d="M68-162c25-46 127-43 121 31C183-60 169 1 98 4 69 5 53-11 43-31L36 0H5l52-261h31zm88 36c2-27-9-43-34-43-55 0-70 51-70 103 0 29 15 45 43 46 52 0 58-58 61-106" id="be"/><g id="C"><use transform="matrix(0.05,0,0,0.05,0,0)" xlink:href="#be"/><use transform="matrix(0.05,0,0,0.05,10,0)" xlink:href="#aC"/></g><g id="D"><use transform="matrix(0.05,0,0,0.05,0,0)" xlink:href="#aB"/><use transform="matrix(0.05,0,0,0.05,12.950000000000001,0)" xlink:href="#ap"/><use transform="matrix(0.05,0,0,0.05,22.950000000000003,0)" xlink:href="#al"/><use transform="matrix(0.05,0,0,0.05,26.900000000000002,0)" xlink:href="#al"/><use transform="matrix(0.05,0,0,0.05,30.85,0)" xlink:href="#aC"/></g><path fill="#fff" d="M219-77C219 17 104-2 11 0l48-248c73 2 169-15 169 57 0 38-24 54-60 60 29 5 51 21 51 54zm-26-111c0-44-62-31-105-33l-16 79c55 0 121 9 121-46zm-7 110c-1-49-69-36-119-38L50-27c61-1 137 12 136-51" id="bf"/><g id="E"><use transform="matrix(0.05,0,0,0.05,0,0)" xlink:href="#bd"/><use transform="matrix(0.05,0,0,0.05,10,0)" xlink:href="#ax"/><use transform="matrix(0.05,0,0,0.05,20,0)" xlink:href="#ap"/><use transform="matrix(0.05,0,0,0.05,30,0)" xlink:href="#aE"/><use transform="matrix(0.05,0,0,0.05,35.95,0)" xlink:href="#aC"/><use transform="matrix(0.05,0,0,0.05,44.95,0)" xlink:href="#aq"/><use transform="matrix(0.05,0,0,0.05,54.95,0)" xlink:href="#ay"/><use transform="matrix(0.05,0,0,0.05,63.95,0)" xlink:href="#ak"/><use transform="matrix(0.05,0,0,0.05,73.95,0)" xlink:href="#aY"/><use transform="matrix(0.05,0,0,0.05,88.9,0)" xlink:href="#aw"/><use transform="matrix(0.05,0,0,0.05,98.9,0)" xlink:href="#al"/><use transform="matrix(0.05,0,0,0.05,102.85000000000001,0)" xlink:href="#ap"/><use transform="matrix(0.05,0,0,0.05,112.85000000000001,0)" xlink:href="#aq"/><use transform="matrix(0.05,0,0,0.05,122.85000000000001,0)" xlink:href="#av"/><use transform="matrix(0.05,0,0,0.05,132.85000000000002,0)" xlink:href="#ak"/><use transform="matrix(0.05,0,0,0.05,142.85000000000002,0)" xlink:href="#aY"/><use transform="matrix(0.05,0,0,0.05,157.8,0)" xlink:href="#ap"/><use transform="matrix(0.05,0,0,0.05,167.8,0)" xlink:href="#aq"/><use transform="matrix(0.05,0,0,0.05,177.8,0)" xlink:href="#bf"/><use transform="matrix(0.05,0,0,0.05,189.8,0)" xlink:href="#az"/><use transform="matrix(0.05,0,0,0.05,198.8,0)" xlink:href="#ar"/><use transform="matrix(0.05,0,0,0.05,203.8,0)" xlink:href="#ao"/><use transform="matrix(0.05,0,0,0.05,208.8,0)" xlink:href="#aZ"/><use transform="matrix(0.05,0,0,0.05,218.8,0)" xlink:href="#aZ"/><use transform="matrix(0.05,0,0,0.05,228.8,0)" xlink:href="#al"/><use transform="matrix(0.05,0,0,0.05,232.75,0)" xlink:href="#ay"/><use transform="matrix(0.05,0,0,0.05,241.75,0)" xlink:href="#as"/></g><path fill="#fff" d="M62-99C39-31 123 0 170-40s38-139 58-208h34C234-144 253 4 115 4 49 4 18-43 31-112l26-136h34" id="bg"/><g id="F"><use transform="matrix(0.05,0,0,0.05,0,0)" xlink:href="#bg"/><use transform="matrix(0.05,0,0,0.05,12.950000000000001,0)" xlink:href="#ay"/><use transform="matrix(0.05,0,0,0.05,21.950000000000003,0)" xlink:href="#ap"/></g><path fill="#fff" d="M87-220l-18 92h140l-5 28H64L45 0H11l48-248h178l-5 28H87" id="bh"/><g id="G"><use transform="matrix(0.05,0,0,0.05,0,0)" xlink:href="#bf"/><use transform="matrix(0.05,0,0,0.05,12,0)" xlink:href="#aD"/><use transform="matrix(0.05,0,0,0.05,24.950000000000003,0)" xlink:href="#bh"/><use transform="matrix(0.05,0,0,0.05,35.900000000000006,0)" xlink:href="#ao"/><use transform="matrix(0.05,0,0,0.05,40.900000000000006,0)" xlink:href="#aZ"/><use transform="matrix(0.05,0,0,0.05,50.900000000000006,0)" xlink:href="#aZ"/><use transform="matrix(0.05,0,0,0.05,60.900000000000006,0)" xlink:href="#al"/><use transform="matrix(0.05,0,0,0.05,64.85000000000001,0)" xlink:href="#ay"/></g><g id="H"><use transform="matrix(0.05,0,0,0.05,0,0)" xlink:href="#ao"/><use transform="matrix(0.05,0,0,0.05,5,0)" xlink:href="#aZ"/></g><path fill="#fff" d="M103-194c29 0 47 14 56 36 2-11 5-23 8-32h30L160-5C157 61 82 97 21 62 9 55 4 45 1 30l28-7c7 42 83 31 92-3 4-16 9-38 13-55-13 20-29 36-62 36-40 0-60-25-60-64 0-71 23-131 91-131zm4 24c-53 0-58 54-61 104-2 27 10 44 36 44 49 0 65-50 67-102 1-29-15-46-42-46" id="bi"/><g id="I"><use transform="matrix(0.05,0,0,0.05,0,0)" xlink:href="#bi"/><use transform="matrix(0.05,0,0,0.05,10,0)" xlink:href="#ap"/><use transform="matrix(0.05,0,0,0.05,20,0)" xlink:href="#ao"/></g><g id="J"><use transform="matrix(0.05,0,0,0.05,0,0)" xlink:href="#ao"/><use transform="matrix(0.05,0,0,0.05,5,0)" xlink:href="#au"/><use transform="matrix(0.05,0,0,0.05,15,0)" xlink:href="#ap"/></g><g id="K"><use transform="matrix(0.05,0,0,0.05,0,0)" xlink:href="#ay"/><use transform="matrix(0.05,0,0,0.05,9,0)" xlink:href="#ak"/><use transform="matrix(0.05,0,0,0.05,19,0)" xlink:href="#aY"/><use transform="matrix(0.05,0,0,0.05,33.95,0)" xlink:href="#aw"/><use transform="matrix(0.05,0,0,0.05,43.95,0)" xlink:href="#ap"/></g><g id="L"><use transform="matrix(0.05,0,0,0.05,0,0)" xlink:href="#av"/><use transform="matrix(0.05,0,0,0.05,10,0)" xlink:href="#ak"/><use transform="matrix(0.05,0,0,0.05,20,0)" xlink:href="#aY"/><use transform="matrix(0.05,0,0,0.05,34.95,0)" xlink:href="#ap"/><use transform="matrix(0.05,0,0,0.05,44.95,0)" xlink:href="#ay"/></g><g id="M"><use transform="matrix(0.05,0,0,0.05,0,0)" xlink:href="#ar"/><use transform="matrix(0.05,0,0,0.05,5,0)" xlink:href="#aE"/><use transform="matrix(0.05,0,0,0.05,10.95,0)" xlink:href="#aZ"/><use transform="matrix(0.05,0,0,0.05,20.95,0)" xlink:href="#aY"/></g><g id="N"><use transform="matrix(0.05,0,0,0.05,0,0)" xlink:href="#be"/><use transform="matrix(0.05,0,0,0.05,10,0)" xlink:href="#az"/><use transform="matrix(0.05,0,0,0.05,19,0)" xlink:href="#ar"/></g><g id="O"><use transform="matrix(0.05,0,0,0.05,0,0)" xlink:href="#bi"/><use transform="matrix(0.05,0,0,0.05,10,0)" xlink:href="#ap"/><use transform="matrix(0.05,0,0,0.05,20,0)" xlink:href="#av"/><use transform="matrix(0.05,0,0,0.05,30,0)" xlink:href="#ap"/><use transform="matrix(0.05,0,0,0.05,40,0)" xlink:href="#aE"/><use transform="matrix(0.05,0,0,0.05,45.95,0)" xlink:href="#ak"/><use transform="matrix(0.05,0,0,0.05,55.95,0)" xlink:href="#ao"/><use transform="matrix(0.05,0,0,0.05,60.95,0)" xlink:href="#ap"/><use transform="matrix(0.05,0,0,0.05,70.95,0)" xlink:href="#an"/></g><g id="P"><use transform="matrix(0.05,0,0,0.05,0,0)" xlink:href="#ar"/><use transform="matrix(0.05,0,0,0.05,5,0)" xlink:href="#aE"/><use transform="matrix(0.05,0,0,0.05,10.95,0)" xlink:href="#aZ"/><use transform="matrix(0.05,0,0,0.05,20.95,0)" xlink:href="#aY"/></g><path fill="#fff" d="M14 0l8-38h34L48 0H14" id="bj"/><g id="Q"><use transform="matrix(0.05,0,0,0.05,0,0)" xlink:href="#az"/><use transform="matrix(0.05,0,0,0.05,9,0)" xlink:href="#ak"/><use transform="matrix(0.05,0,0,0.05,19,0)" xlink:href="#al"/><use transform="matrix(0.05,0,0,0.05,22.95,0)" xlink:href="#al"/><use transform="matrix(0.05,0,0,0.05,26.899999999999995,0)" xlink:href="#aq"/><use transform="matrix(0.05,0,0,0.05,36.9,0)" xlink:href="#ay"/><use transform="matrix(0.05,0,0,0.05,45.9,0)" xlink:href="#aA"/><use transform="matrix(0.05,0,0,0.05,57.900000000000006,0)" xlink:href="#at"/><use transform="matrix(0.05,0,0,0.05,69.9,0)" xlink:href="#aq"/><use transform="matrix(0.05,0,0,0.05,79.9,0)" xlink:href="#aB"/><use transform="matrix(0.05,0,0,0.05,92.85000000000001,0)" xlink:href="#ap"/><use transform="matrix(0.05,0,0,0.05,102.85000000000001,0)" xlink:href="#al"/><use transform="matrix(0.05,0,0,0.05,106.80000000000001,0)" xlink:href="#al"/><use transform="matrix(0.05,0,0,0.05,110.75,0)" xlink:href="#aC"/><use transform="matrix(0.05,0,0,0.05,118.40000000000003,0)" xlink:href="#bj"/></g><path fill="#fff" d="M238-179c0 84-86 86-175 82L45 0H11l48-248c82 0 179-12 179 69zm-34 1c0-53-64-42-116-43l-19 98c63 0 135 9 135-55" id="bk"/><g id="R"><use transform="matrix(0.05,0,0,0.05,0,0)" xlink:href="#bk"/><use transform="matrix(0.05,0,0,0.05,12,0)" xlink:href="#ak"/><use transform="matrix(0.05,0,0,0.05,22,0)" xlink:href="#ay"/><use transform="matrix(0.05,0,0,0.05,31,0)" xlink:href="#ao"/><use transform="matrix(0.05,0,0,0.05,36,0)" xlink:href="#ap"/></g><g id="S"><use transform="matrix(0.05,0,0,0.05,0,0)" xlink:href="#ay"/><use transform="matrix(0.05,0,0,0.05,9,0)" xlink:href="#ak"/><use transform="matrix(0.05,0,0,0.05,19,0)" xlink:href="#aY"/><use transform="matrix(0.05,0,0,0.05,33.95,0)" xlink:href="#aw"/><use transform="matrix(0.05,0,0,0.05,43.95,0)" xlink:href="#al"/><use transform="matrix(0.05,0,0,0.05,47.900000000000006,0)" xlink:href="#ap"/></g><g id="T"><use transform="matrix(0.05,0,0,0.05,0,0)" xlink:href="#av"/><use transform="matrix(0.05,0,0,0.05,10,0)" xlink:href="#ak"/><use transform="matrix(0.05,0,0,0.05,20,0)" xlink:href="#aY"/><use transform="matrix(0.05,0,0,0.05,34.95,0)" xlink:href="#ap"/><use transform="matrix(0.05,0,0,0.05,44.95,0)" xlink:href="#ay"/></g><g id="U"><use transform="matrix(0.05,0,0,0.05,0,0)" xlink:href="#ay"/><use transform="matrix(0.05,0,0,0.05,9,0)" xlink:href="#ak"/><use transform="matrix(0.05,0,0,0.05,19,0)" xlink:href="#aY"/><use transform="matrix(0.05,0,0,0.05,33.95,0)" xlink:href="#aw"/><use transform="matrix(0.05,0,0,0.05,43.95,0)" xlink:href="#al"/><use transform="matrix(0.05,0,0,0.05,47.900000000000006,0)" xlink:href="#ap"/></g><g id="V"><use transform="matrix(0.05,0,0,0.05,0,0)" xlink:href="#ao"/><use transform="matrix(0.05,0,0,0.05,5,0)" xlink:href="#aC"/><use transform="matrix(0.05,0,0,0.05,14,0)" xlink:href="#aw"/><use transform="matrix(0.05,0,0,0.05,24,0)" xlink:href="#ap"/><use transform="matrix(0.05,0,0,0.05,34,0)" xlink:href="#ay"/></g><g id="W"><use transform="matrix(0.05,0,0,0.05,0,0)" xlink:href="#az"/><use transform="matrix(0.05,0,0,0.05,9,0)" xlink:href="#aE"/><use transform="matrix(0.05,0,0,0.05,14.949999999999998,0)" xlink:href="#ap"/><use transform="matrix(0.05,0,0,0.05,24.95,0)" xlink:href="#ak"/><use transform="matrix(0.05,0,0,0.05,34.95,0)" xlink:href="#ao"/><use transform="matrix(0.05,0,0,0.05,39.95,0)" xlink:href="#ap"/><use transform="matrix(0.05,0,0,0.05,49.95,0)" xlink:href="#aq"/><use transform="matrix(0.05,0,0,0.05,59.95,0)" xlink:href="#ak"/><use transform="matrix(0.05,0,0,0.05,69.95,0)" xlink:href="#ax"/><use transform="matrix(0.05,0,0,0.05,79.95,0)" xlink:href="#aX"/><use transform="matrix(0.05,0,0,0.05,88.95,0)" xlink:href="#am"/><use transform="matrix(0.05,0,0,0.05,92.9,0)" xlink:href="#al"/><use transform="matrix(0.05,0,0,0.05,96.85000000000001,0)" xlink:href="#am"/><use transform="matrix(0.05,0,0,0.05,100.80000000000001,0)" xlink:href="#ak"/><use transform="matrix(0.05,0,0,0.05,110.80000000000001,0)" xlink:href="#aE"/><use transform="matrix(0.05,0,0,0.05,116.75,0)" xlink:href="#aC"/><use transform="matrix(0.05,0,0,0.05,125.75,0)" xlink:href="#aq"/><use transform="matrix(0.05,0,0,0.05,135.75,0)" xlink:href="#ay"/><use transform="matrix(0.05,0,0,0.05,144.75,0)" xlink:href="#ak"/><use transform="matrix(0.05,0,0,0.05,154.75,0)" xlink:href="#aY"/><use transform="matrix(0.05,0,0,0.05,169.7,0)" xlink:href="#aw"/><use transform="matrix(0.05,0,0,0.05,179.7,0)" xlink:href="#al"/><use transform="matrix(0.05,0,0,0.05,183.64999999999998,0)" xlink:href="#ap"/><use transform="matrix(0.05,0,0,0.05,193.64999999999998,0)" xlink:href="#aq"/><use transform="matrix(0.05,0,0,0.05,203.64999999999998,0)" xlink:href="#ao"/><use transform="matrix(0.05,0,0,0.05,208.64999999999998,0)" xlink:href="#aC"/><use transform="matrix(0.05,0,0,0.05,217.64999999999998,0)" xlink:href="#aw"/><use transform="matrix(0.05,0,0,0.05,227.64999999999998,0)" xlink:href="#ap"/><use transform="matrix(0.05,0,0,0.05,237.64999999999998,0)" xlink:href="#aq"/><use transform="matrix(0.05,0,0,0.05,247.64999999999998,0)" xlink:href="#ar"/><use transform="matrix(0.05,0,0,0.05,252.64999999999998,0)" xlink:href="#am"/><use transform="matrix(0.05,0,0,0.05,256.59999999999997,0)" xlink:href="#al"/><use transform="matrix(0.05,0,0,0.05,260.54999999999995,0)" xlink:href="#ap"/></g><g id="X"><use transform="matrix(0.05,0,0,0.05,0,0)" xlink:href="#ao"/><use transform="matrix(0.05,0,0,0.05,5,0)" xlink:href="#aZ"/></g><g id="Y"><use transform="matrix(0.05,0,0,0.05,0,0)" xlink:href="#az"/><use transform="matrix(0.05,0,0,0.05,9,0)" xlink:href="#aE"/><use transform="matrix(0.05,0,0,0.05,14.949999999999998,0)" xlink:href="#ap"/><use transform="matrix(0.05,0,0,0.05,24.95,0)" xlink:href="#ak"/><use transform="matrix(0.05,0,0,0.05,34.95,0)" xlink:href="#ao"/><use transform="matrix(0.05,0,0,0.05,39.95,0)" xlink:href="#ap"/></g><g id="Z"><use transform="matrix(0.05,0,0,0.05,0,0)" xlink:href="#ay"/><use transform="matrix(0.05,0,0,0.05,9,0)" xlink:href="#ak"/><use transform="matrix(0.05,0,0,0.05,19,0)" xlink:href="#aY"/><use transform="matrix(0.05,0,0,0.05,33.95,0)" xlink:href="#aw"/><use transform="matrix(0.05,0,0,0.05,43.95,0)" xlink:href="#ap"/><use transform="matrix(0.05,0,0,0.05,53.95,0)" xlink:href="#ay"/><use transform="matrix(0.05,0,0,0.05,62.95,0)" xlink:href="#bj"/><use transform="matrix(0.05,0,0,0.05,67.95,0)" xlink:href="#ao"/><use transform="matrix(0.05,0,0,0.05,72.95,0)" xlink:href="#ay"/><use transform="matrix(0.05,0,0,0.05,81.95,0)" xlink:href="#aj"/></g><path fill="#fff" d="M249-183c0 48-29 72-75 77L221 0h-36l-43-103H65L45 0H11l48-248c83 2 190-17 190 65zm-34 3c0-55-74-39-127-41l-18 92c63-1 145 13 145-51" id="bl"/><g id="aa"><use transform="matrix(0.05,0,0,0.05,0,0)" xlink:href="#ar"/><use transform="matrix(0.05,0,0,0.05,5,0)" xlink:href="#am"/><use transform="matrix(0.05,0,0,0.05,8.95,0)" xlink:href="#al"/><use transform="matrix(0.05,0,0,0.05,12.899999999999999,0)" xlink:href="#ao"/><use transform="matrix(0.05,0,0,0.05,17.9,0)" xlink:href="#ap"/><use transform="matrix(0.05,0,0,0.05,27.899999999999995,0)" xlink:href="#aE"/><use transform="matrix(0.05,0,0,0.05,33.85,0)" xlink:href="#aq"/><use transform="matrix(0.05,0,0,0.05,43.85,0)" xlink:href="#bl"/><use transform="matrix(0.05,0,0,0.05,56.800000000000004,0)" xlink:href="#ak"/><use transform="matrix(0.05,0,0,0.05,66.80000000000001,0)" xlink:href="#ba"/><use transform="matrix(0.05,0,0,0.05,79.75000000000001,0)" xlink:href="#ay"/><use transform="matrix(0.05,0,0,0.05,88.75000000000001,0)" xlink:href="#aA"/><use transform="matrix(0.05,0,0,0.05,100.75000000000001,0)" xlink:href="#at"/><use transform="matrix(0.05,0,0,0.05,112.75,0)" xlink:href="#aq"/><use transform="matrix(0.05,0,0,0.05,122.75,0)" xlink:href="#aB"/><use transform="matrix(0.05,0,0,0.05,135.70000000000002,0)" xlink:href="#ap"/><use transform="matrix(0.05,0,0,0.05,145.70000000000002,0)" xlink:href="#al"/><use transform="matrix(0.05,0,0,0.05,149.65,0)" xlink:href="#al"/><use transform="matrix(0.05,0,0,0.05,153.6,0)" xlink:href="#aC"/><use transform="matrix(0.05,0,0,0.05,162.6,0)" xlink:href="#as"/></g><g id="ab"><use transform="matrix(0.05,0,0,0.05,0,0)" xlink:href="#bh"/><use transform="matrix(0.05,0,0,0.05,10.950000000000001,0)" xlink:href="#am"/><use transform="matrix(0.05,0,0,0.05,14.9,0)" xlink:href="#al"/><use transform="matrix(0.05,0,0,0.05,18.85,0)" xlink:href="#ao"/><use transform="matrix(0.05,0,0,0.05,23.85,0)" xlink:href="#ap"/><use transform="matrix(0.05,0,0,0.05,33.85,0)" xlink:href="#aE"/></g><g id="ac"><use transform="matrix(0.05,0,0,0.05,0,0)" xlink:href="#aZ"/><use transform="matrix(0.05,0,0,0.05,10,0)" xlink:href="#ax"/><use transform="matrix(0.05,0,0,0.05,20,0)" xlink:href="#ao"/></g><g id="ad"><use transform="matrix(0.05,0,0,0.05,0,0)" xlink:href="#bi"/><use transform="matrix(0.05,0,0,0.05,10,0)" xlink:href="#ap"/><use transform="matrix(0.05,0,0,0.05,20,0)" xlink:href="#aE"/><use transform="matrix(0.05,0,0,0.05,25.950000000000003,0)" xlink:href="#aY"/><use transform="matrix(0.05,0,0,0.05,40.9,0)" xlink:href="#al"/><use transform="matrix(0.05,0,0,0.05,44.85,0)" xlink:href="#am"/><use transform="matrix(0.05,0,0,0.05,48.800000000000004,0)" xlink:href="#av"/><use transform="matrix(0.05,0,0,0.05,58.800000000000004,0)" xlink:href="#ap"/></g><g id="ae"><use transform="matrix(0.05,0,0,0.05,0,0)" xlink:href="#aA"/><use transform="matrix(0.05,0,0,0.05,12,0)" xlink:href="#at"/><use transform="matrix(0.05,0,0,0.05,24,0)" xlink:href="#ay"/></g><path fill="#fff" d="M151-85c6-55-69-56-94-29H26l34-134h141l-5 27H84l-20 79c41-34 127-11 121 53C199 13 30 38 8-54l29-8C52 0 159-13 151-85" id="bm"/><path fill="#fff" d="M9 0l6-27h63l36-188-63 39 6-31 66-41h29L110-27h60l-5 27H9" id="bn"/><path fill="#fff" d="M123-251c66 0 92 69 53 113C138-94 73-75 39-27h128l-5 27H-2c17-92 123-93 159-163 14-28-1-64-36-62-29 2-46 17-54 41l-30-6c13-36 37-61 86-61" id="bo"/><g id="af"><use transform="matrix(0.05,0,0,0.05,0,0)" xlink:href="#bi"/><use transform="matrix(0.05,0,0,0.05,10,0)" xlink:href="#ap"/><use transform="matrix(0.05,0,0,0.05,20,0)" xlink:href="#av"/><use transform="matrix(0.05,0,0,0.05,30,0)" xlink:href="#ap"/><use transform="matrix(0.05,0,0,0.05,40,0)" xlink:href="#aE"/><use transform="matrix(0.05,0,0,0.05,45.95,0)" xlink:href="#ak"/><use transform="matrix(0.05,0,0,0.05,55.95,0)" xlink:href="#ao"/><use transform="matrix(0.05,0,0,0.05,60.95,0)" xlink:href="#ap"/><use transform="matrix(0.05,0,0,0.05,70.95,0)" xlink:href="#aq"/><use transform="matrix(0.05,0,0,0.05,80.95,0)" xlink:href="#ay"/><use transform="matrix(0.05,0,0,0.05,89.95,0)" xlink:href="#au"/><use transform="matrix(0.05,0,0,0.05,99.95,0)" xlink:href="#ak"/><use transform="matrix(0.05,0,0,0.05,109.95,0)" xlink:href="#bm"/><use transform="matrix(0.05,0,0,0.05,119.95,0)" xlink:href="#bn"/><use transform="matrix(0.05,0,0,0.05,129.95,0)" xlink:href="#bo"/><use transform="matrix(0.05,0,0,0.05,139.95,0)" xlink:href="#as"/></g><path fill="#fff" d="M52-101C46-14 166-7 216-51l9-45h-74l6-28h105l-18 87C217-12 181 4 130 4 60 4 18-31 18-101c0-106 78-167 188-146 30 6 48 27 59 54l-34 9c-10-26-31-41-67-40-75 1-107 50-112 123" id="bp"/><g id="ag"><use transform="matrix(0.05,0,0,0.05,0,0)" xlink:href="#bp"/><use transform="matrix(0.05,0,0,0.05,14,0)" xlink:href="#ap"/><use transform="matrix(0.05,0,0,0.05,24,0)" xlink:href="#av"/><use transform="matrix(0.05,0,0,0.05,34,0)" xlink:href="#ap"/><use transform="matrix(0.05,0,0,0.05,44,0)" xlink:href="#aE"/><use transform="matrix(0.05,0,0,0.05,49.95,0)" xlink:href="#ak"/><use transform="matrix(0.05,0,0,0.05,59.95,0)" xlink:href="#ao"/><use transform="matrix(0.05,0,0,0.05,64.95,0)" xlink:href="#ap"/></g><g id="ah"><use transform="matrix(0.05,0,0,0.05,0,0)" xlink:href="#ay"/><use transform="matrix(0.05,0,0,0.05,9,0)" xlink:href="#au"/><use transform="matrix(0.05,0,0,0.05,19,0)" xlink:href="#ak"/><use transform="matrix(0.05,0,0,0.05,29,0)" xlink:href="#bm"/><use transform="matrix(0.05,0,0,0.05,39,0)" xlink:href="#bn"/><use transform="matrix(0.05,0,0,0.05,49,0)" xlink:href="#bo"/></g><path fill="#fff" d="M127 0L80-88 50-66 37 0H6l51-261h31L57-100l99-90h39l-93 82L161 0h-34" id="bq"/><g id="ai"><use transform="matrix(0.05,0,0,0.05,0,0)" xlink:href="#az"/><use transform="matrix(0.05,0,0,0.05,9,0)" xlink:href="#au"/><use transform="matrix(0.05,0,0,0.05,19,0)" xlink:href="#ap"/><use transform="matrix(0.05,0,0,0.05,29,0)" xlink:href="#az"/><use transform="matrix(0.05,0,0,0.05,38,0)" xlink:href="#bq"/><use transform="matrix(0.05,0,0,0.05,47,0)" xlink:href="#ay"/><use transform="matrix(0.05,0,0,0.05,56,0)" xlink:href="#ax"/><use transform="matrix(0.05,0,0,0.05,66,0)" xlink:href="#aY"/></g></defs></g></svg>