<?xml version="1.0" encoding="UTF-8" standalone="no"?><svg xmlns="http://www.w3.org/2000/svg" xmlns:xlink="http://www.w3.org/1999/xlink" contentStyleType="text/css" height="729px" preserveAspectRatio="none" style="width:808px;height:729px;background:#FFFFFF;" version="1.1" viewBox="0 0 808 729" width="808px" zoomAndPan="magnify"><defs/><g><ellipse cx="404" cy="20" fill="#222222" rx="10" ry="10" style="stroke:#222222;stroke-width:1.0;"/><rect fill="#F1F1F1" height="64.2344" rx="12.5" ry="12.5" style="stroke:#181818;stroke-width:0.5;" width="238" x="285" y="50"/><text fill="#000000" font-family="sans-serif" font-size="14" font-weight="bold" lengthAdjust="spacing" textLength="40" x="295" y="72.9951">Input</text><text fill="#000000" font-family="sans-serif" font-size="12" lengthAdjust="spacing" textLength="12" x="295" y="87.4355">---</text><text fill="#000000" font-family="sans-serif" font-size="12" lengthAdjust="spacing" textLength="218" x="295" y="101.4043">Input Matched Tumor/Normal BAMs</text><rect fill="#F1F1F1" height="64.2344" rx="12.5" ry="12.5" style="stroke:#181818;stroke-width:0.5;" width="358" x="225" y="134.2344"/><text fill="#000000" font-family="sans-serif" font-size="14" font-weight="bold" lengthAdjust="spacing" textLength="122" x="235" y="157.2295">Input Validation</text><text fill="#000000" font-family="sans-serif" font-size="12" lengthAdjust="spacing" textLength="12" x="235" y="171.6699">---</text><text fill="#000000" font-family="sans-serif" font-size="12" lengthAdjust="spacing" textLength="338" x="235" y="185.6387">Validate the input BAMs and corresponding index files</text><line style="stroke:#181818;stroke-width:1.5;" x1="142" x2="695" y1="218.4688" y2="218.4688"/><rect fill="none" height="428.1875" style="stroke:#000000;stroke-width:1.5;" width="262" x="11" y="228.4688"/><path d="M64,228.4688 L64,237.7656 L54,247.7656 L11,247.7656 " fill="none" style="stroke:#000000;stroke-width:1.5;"/><text fill="#000000" font-family="sans-serif" font-size="14" lengthAdjust="spacing" textLength="43" x="14" y="242.4639">DELLY</text><rect fill="#F1F1F1" height="64.2344" rx="12.5" ry="12.5" style="stroke:#181818;stroke-width:0.5;" width="154" x="65" y="264.7656"/><text fill="#000000" font-family="sans-serif" font-size="14" font-weight="bold" lengthAdjust="spacing" textLength="83" x="75" y="287.7607">DELLY sSV</text><text fill="#000000" font-family="sans-serif" font-size="12" lengthAdjust="spacing" textLength="12" x="75" y="302.2012">---</text><text fill="#000000" font-family="sans-serif" font-size="12" lengthAdjust="spacing" textLength="134" x="75" y="316.1699">Call sSVs using DELLY</text><rect fill="#F1F1F1" height="78.2031" rx="12.5" ry="12.5" style="stroke:#181818;stroke-width:0.5;" width="242" x="21" y="364"/><text fill="#000000" font-family="sans-serif" font-size="14" font-weight="bold" lengthAdjust="spacing" textLength="159" x="31" y="386.9951">Query Sample Name</text><text fill="#000000" font-family="sans-serif" font-size="12" lengthAdjust="spacing" textLength="12" x="31" y="401.4355">---</text><text fill="#000000" font-family="sans-serif" font-size="12" lengthAdjust="spacing" textLength="222" x="31" y="415.4043">Query Tumor/Normal sample names</text><text fill="#000000" font-family="sans-serif" font-size="12" lengthAdjust="spacing" textLength="92" x="31" y="429.373">using BCFtools</text><rect fill="#F1F1F1" height="64.2344" rx="12.5" ry="12.5" style="stroke:#181818;stroke-width:0.5;" width="239" x="22.5" y="469.1875"/><text fill="#000000" font-family="sans-serif" font-size="14" font-weight="bold" lengthAdjust="spacing" textLength="75" x="32.5" y="492.1826">Filter sSV</text><text fill="#000000" font-family="sans-serif" font-size="12" lengthAdjust="spacing" textLength="12" x="32.5" y="506.623">---</text><text fill="#000000" font-family="sans-serif" font-size="12" lengthAdjust="spacing" textLength="219" x="32.5" y="520.5918">Filter out germline SVs using DELLY</text><rect fill="#F1F1F1" height="78.2031" rx="12.5" ry="12.5" style="stroke:#181818;stroke-width:0.5;" width="181" x="51.5" y="560.4219"/><text fill="#000000" font-family="sans-serif" font-size="14" font-weight="bold" lengthAdjust="spacing" textLength="93" x="61.5" y="583.417">CIRCOS plot</text><text fill="#000000" font-family="sans-serif" font-size="12" lengthAdjust="spacing" textLength="12" x="61.5" y="597.8574">---</text><text fill="#000000" font-family="sans-serif" font-size="12" lengthAdjust="spacing" textLength="161" x="61.5" y="611.8262">Plot CIRCOS for DELLY gSV</text><text fill="#000000" font-family="sans-serif" font-size="12" lengthAdjust="spacing" textLength="36" x="61.5" y="625.7949">(PNG)</text><rect fill="none" height="402.2188" style="stroke:#000000;stroke-width:1.5;" width="264" x="301" y="242.4375"/><path d="M373,242.4375 L373,251.7344 L363,261.7344 L301,261.7344 " fill="none" style="stroke:#000000;stroke-width:1.5;"/><text fill="#000000" font-family="sans-serif" font-size="14" lengthAdjust="spacing" textLength="62" x="304" y="256.4326">GRIDSS2</text><rect fill="#F1F1F1" height="64.2344" rx="12.5" ry="12.5" style="stroke:#181818;stroke-width:0.5;" width="219" x="323.5" y="278.7344"/><text fill="#000000" font-family="sans-serif" font-size="14" font-weight="bold" lengthAdjust="spacing" textLength="130" x="333.5" y="301.7295">Preprocess BAM</text><text fill="#000000" font-family="sans-serif" font-size="12" lengthAdjust="spacing" textLength="12" x="333.5" y="316.1699">---</text><text fill="#000000" font-family="sans-serif" font-size="12" lengthAdjust="spacing" textLength="199" x="333.5" y="330.1387">Preprocess Tumor/Normal BAMs</text><rect fill="#F1F1F1" height="64.2344" rx="12.5" ry="12.5" style="stroke:#181818;stroke-width:0.5;" width="244" x="311" y="377.9688"/><text fill="#000000" font-family="sans-serif" font-size="14" font-weight="bold" lengthAdjust="spacing" textLength="156" x="321" y="400.9639">Breakend Assembly</text><text fill="#000000" font-family="sans-serif" font-size="12" lengthAdjust="spacing" textLength="12" x="321" y="415.4043">---</text><text fill="#000000" font-family="sans-serif" font-size="12" lengthAdjust="spacing" textLength="224" x="321" y="429.373">Perform GRIDSS breakend assembly</text><rect fill="#F1F1F1" height="64.2344" rx="12.5" ry="12.5" style="stroke:#181818;stroke-width:0.5;" width="164" x="351" y="469.1875"/><text fill="#000000" font-family="sans-serif" font-size="14" font-weight="bold" lengthAdjust="spacing" textLength="102" x="361" y="492.1826">GRIDSS2 sSV</text><text fill="#000000" font-family="sans-serif" font-size="12" lengthAdjust="spacing" textLength="12" x="361" y="506.623">---</text><text fill="#000000" font-family="sans-serif" font-size="12" lengthAdjust="spacing" textLength="144" x="361" y="520.5918">Call SVs using GRIDSS2</text><rect fill="#F1F1F1" height="64.2344" rx="12.5" ry="12.5" style="stroke:#181818;stroke-width:0.5;" width="156" x="355" y="560.4219"/><text fill="#000000" font-family="sans-serif" font-size="14" font-weight="bold" lengthAdjust="spacing" textLength="75" x="365" y="583.417">Filter sSV</text><text fill="#000000" font-family="sans-serif" font-size="12" lengthAdjust="spacing" textLength="12" x="365" y="597.8574">---</text><text fill="#000000" font-family="sans-serif" font-size="12" lengthAdjust="spacing" textLength="136" x="365" y="611.8262">Filter somatic SV calls</text><rect fill="none" height="217.7188" style="stroke:#000000;stroke-width:1.5;" width="204" x="593" y="334.6875"/><path d="M645,334.6875 L645,343.9844 L635,353.9844 L593,353.9844 " fill="none" style="stroke:#000000;stroke-width:1.5;"/><text fill="#000000" font-family="sans-serif" font-size="14" lengthAdjust="spacing" textLength="42" x="596" y="348.6826">Manta</text><rect fill="#F1F1F1" height="64.2344" rx="12.5" ry="12.5" style="stroke:#181818;stroke-width:0.5;" width="150" x="620" y="370.9844"/><text fill="#000000" font-family="sans-serif" font-size="14" font-weight="bold" lengthAdjust="spacing" textLength="82" x="630" y="393.9795">Manta sSV</text><text fill="#000000" font-family="sans-serif" font-size="12" lengthAdjust="spacing" textLength="12" x="630" y="408.4199">---</text><text fill="#000000" font-family="sans-serif" font-size="12" lengthAdjust="spacing" textLength="130" x="630" y="422.3887">Call SVs using Manta</text><rect fill="#F1F1F1" height="78.2031" rx="12.5" ry="12.5" style="stroke:#181818;stroke-width:0.5;" width="184" x="603" y="462.2031"/><text fill="#000000" font-family="sans-serif" font-size="14" font-weight="bold" lengthAdjust="spacing" textLength="93" x="613" y="485.1982">CIRCOS plot</text><text fill="#000000" font-family="sans-serif" font-size="12" lengthAdjust="spacing" textLength="12" x="613" y="499.6387">---</text><text fill="#000000" font-family="sans-serif" font-size="12" lengthAdjust="spacing" textLength="164" x="613" y="513.6074">Plot CIRCOS for Manta gSV</text><text fill="#000000" font-family="sans-serif" font-size="12" lengthAdjust="spacing" textLength="36" x="613" y="527.5762">(PNG)</text><line style="stroke:#181818;stroke-width:1.5;" x1="142" x2="695" y1="676.6563" y2="676.6563"/><ellipse cx="404" cy="707.6563" rx="11" ry="11" style="stroke:#222222;stroke-width:1.0;fill:none;"/><ellipse cx="404" cy="707.6563" fill="#222222" rx="6" ry="6" style="stroke:#111111;stroke-width:1.0;"/><line style="stroke:#181818;stroke-width:1.0;" x1="404" x2="404" y1="30" y2="50"/><polygon fill="#181818" points="400,40,404,50,408,40,404,44" style="stroke:#181818;stroke-width:1.0;"/><line style="stroke:#181818;stroke-width:1.0;" x1="404" x2="404" y1="114.2344" y2="134.2344"/><polygon fill="#181818" points="400,124.2344,404,134.2344,408,124.2344,404,128.2344" style="stroke:#181818;stroke-width:1.0;"/><line style="stroke:#181818;stroke-width:1.0;" x1="142" x2="142" y1="329" y2="364"/><polygon fill="#181818" points="138,354,142,364,146,354,142,358" style="stroke:#181818;stroke-width:1.0;"/><line style="stroke:#181818;stroke-width:1.0;" x1="142" x2="142" y1="442.2031" y2="469.1875"/><polygon fill="#181818" points="138,459.1875,142,469.1875,146,459.1875,142,463.1875" style="stroke:#181818;stroke-width:1.0;"/><line style="stroke:#181818;stroke-width:1.0;" x1="142" x2="142" y1="533.4219" y2="560.4219"/><polygon fill="#181818" points="138,550.4219,142,560.4219,146,550.4219,142,554.4219" style="stroke:#181818;stroke-width:1.0;"/><line style="stroke:#181818;stroke-width:1.0;" x1="433" x2="433" y1="342.9688" y2="377.9688"/><polygon fill="#181818" points="429,367.9688,433,377.9688,437,367.9688,433,371.9688" style="stroke:#181818;stroke-width:1.0;"/><line style="stroke:#181818;stroke-width:1.0;" x1="433" x2="433" y1="442.2031" y2="469.1875"/><polygon fill="#181818" points="429,459.1875,433,469.1875,437,459.1875,433,463.1875" style="stroke:#181818;stroke-width:1.0;"/><line style="stroke:#181818;stroke-width:1.0;" x1="433" x2="433" y1="533.4219" y2="560.4219"/><polygon fill="#181818" points="429,550.4219,433,560.4219,437,550.4219,433,554.4219" style="stroke:#181818;stroke-width:1.0;"/><line style="stroke:#181818;stroke-width:1.0;" x1="695" x2="695" y1="435.2188" y2="462.2031"/><polygon fill="#181818" points="691,452.2031,695,462.2031,699,452.2031,695,456.2031" style="stroke:#181818;stroke-width:1.0;"/><line style="stroke:#181818;stroke-width:1.0;" x1="142" x2="142" y1="219.9688" y2="264.7656"/><polygon fill="#181818" points="138,254.7656,142,264.7656,146,254.7656,142,258.7656" style="stroke:#181818;stroke-width:1.0;"/><line style="stroke:#181818;stroke-width:1.0;" x1="433" x2="433" y1="219.9688" y2="278.7344"/><polygon fill="#181818" points="429,268.7344,433,278.7344,437,268.7344,433,272.7344" style="stroke:#181818;stroke-width:1.0;"/><line style="stroke:#181818;stroke-width:1.0;" x1="695" x2="695" y1="219.9688" y2="370.9844"/><polygon fill="#181818" points="691,360.9844,695,370.9844,699,360.9844,695,364.9844" style="stroke:#181818;stroke-width:1.0;"/><line style="stroke:#181818;stroke-width:1.0;" x1="142" x2="142" y1="638.625" y2="676.6563"/><polygon fill="#181818" points="138,666.6563,142,676.6563,146,666.6563,142,670.6563" style="stroke:#181818;stroke-width:1.0;"/><line style="stroke:#181818;stroke-width:1.0;" x1="433" x2="433" y1="624.6563" y2="676.6563"/><polygon fill="#181818" points="429,666.6563,433,676.6563,437,666.6563,433,670.6563" style="stroke:#181818;stroke-width:1.0;"/><line style="stroke:#181818;stroke-width:1.0;" x1="695" x2="695" y1="540.4063" y2="676.6563"/><polygon fill="#181818" points="691,666.6563,695,676.6563,699,666.6563,695,670.6563" style="stroke:#181818;stroke-width:1.0;"/><line style="stroke:#181818;stroke-width:1.0;" x1="404" x2="404" y1="198.4688" y2="218.4688"/><polygon fill="#181818" points="400,208.4688,404,218.4688,408,208.4688,404,212.4688" style="stroke:#181818;stroke-width:1.0;"/><line style="stroke:#181818;stroke-width:1.0;" x1="404" x2="404" y1="678.1563" y2="696.6563"/><polygon fill="#181818" points="400,686.6563,404,696.6563,408,686.6563,404,690.6563" style="stroke:#181818;stroke-width:1.0;"/><!--MD5=[b3cd6f89d4c3ea69fa5ad8daf8ac1978]
@startuml
skinparam SwimlaneTitleFontStyle bold

start

:==Input
- - -
Input Matched Tumor/Normal BAMs;
:==Input Validation
- - -
Validate the input BAMs and corresponding index files;

split
partition "DELLY" {
    :==DELLY sSV
    - - -
    Call sSVs using DELLY;
    :==Query Sample Name
    - - -
    Query Tumor/Normal sample names
    using BCFtools;
    :==Filter sSV
    - - -
    Filter out germline SVs using DELLY;
    :==CIRCOS plot
    - - -
    Plot CIRCOS for DELLY gSV
    (PNG);
    }

split again
partition "GRIDSS2" {
    :==Preprocess BAM
    - - -
    Preprocess Tumor/Normal BAMs;
    :==Breakend Assembly
    - - -
    Perform GRIDSS breakend assembly;
    :==GRIDSS2 sSV
    - - -
    Call SVs using GRIDSS2;
    :==Filter sSV
    - - -
    Filter somatic SV calls;
    }

split again
partition "Manta" {
    :==Manta sSV
    - - -
    Call SVs using Manta;
    :==CIRCOS plot
    - - -
    Plot CIRCOS for Manta gSV
    (PNG);
    }
end split
stop
@enduml

PlantUML version 1.2022.6(Tue Jun 21 17:34:49 GMT 2022)
(GPL source distribution)
Java Runtime: OpenJDK Runtime Environment
JVM: OpenJDK 64-Bit Server VM
Default Encoding: UTF-8
Language: en
Country: US
--></g></svg>